<?xml version="1.0" encoding="UTF-8" standalone="no"?>
<!-- Generator: Gravit.io -->
<svg xmlns="http://www.w3.org/2000/svg" xmlns:xlink="http://www.w3.org/1999/xlink" style="isolation:isolate" viewBox="0 0 604 530" width="604pt" height="530pt"><g opacity="0.1"><path d=" M 565 329.625 C 565.078 294.226 551.547 260.992 528.727 240.54 C 529.038 236.771 529.198 232.986 529.205 229.197 C 529.205 169.287 491.386 120.719 444.728 120.719 C 430.361 120.7 416.235 125.392 403.726 134.34 C 370.704 106.832 327.592 90.184 280.429 90.184 C 203.689 90.184 137.678 134.268 108.392 197.477 C 106.765 197.356 105.128 197.29 103.477 197.29 C 56.828 197.29 19 245.857 19 305.768 C 18.967 326.934 23.798 347.655 32.903 365.406 L 32.903 365.406 C 32.903 419.309 73.084 463 122.629 463 L 482.07 463 C 520.986 463 552.533 428.694 552.533 386.369 L 552.533 386.369 C 560.719 369.259 565.032 349.629 565 329.625 Z " fill="rgb(108,99,255)"/></g><path d=" M 414.46 130.164 C 410.861 132.086 407.253 134.014 403.903 136.552 C 402.38 137.7 400.92 138.969 399.354 140.015 C 397.669 141.151 395.88 142.009 394.104 142.927 C 389.205 145.461 384.447 148.413 379.863 151.762 C 380.259 145.266 379.509 138.208 376.441 133.144 C 375.99 132.393 375.488 131.694 374.942 131.053 C 372.77 128.503 369.692 127.844 367.559 125.614 C 368.857 122.726 371.739 120.103 373.701 117.897 Q 376.88 114.338 380.297 111.147 C 384.85 106.89 389.698 103.162 394.782 100.01 C 398.008 98.01 401.378 96.221 404.938 95.611 C 405.387 95.483 405.856 95.536 406.279 95.762 C 406.833 96.148 407.033 97.019 407.167 97.798 C 407.831 101.696 408.169 105.696 408.723 109.624 C 408.994 111.643 409.363 113.639 409.825 115.601 C 410.42 117.921 411.107 120.202 411.883 122.435 Q 413.176 126.297 414.46 130.164 Z " fill="rgb(251,190,190)"/><path d=" M 312.32 240.316 C 312.317 256.771 303.966 271.361 291.617 276.486 C 279.268 281.611 265.715 276.111 258.021 262.85 C 254.225 256.32 252.18 248.424 252.184 240.316 C 252.184 219.29 265.646 202.245 282.252 202.245 C 298.858 202.245 312.32 219.29 312.32 240.316 Z " fill="rgb(190,111,114)"/><path d=" M 271.48 273.867 C 273.088 277.378 274.711 280.919 275.742 284.744 C 276.773 288.569 277.174 292.805 276.324 296.715 C 286.566 289.887 298.756 290.437 310.029 286.98 C 310.33 286.936 310.608 286.751 310.807 286.46 C 310.945 286.06 310.945 285.604 310.807 285.203 C 308.447 274.146 307.539 262.672 308.12 251.242 L 302.235 255.647 C 299.659 257.662 296.989 259.478 294.241 261.086 C 290.351 263.243 286.223 264.548 282.161 266.059 C 278.944 267.268 272.558 268.833 270.535 272.392 C 270.9 272.829 271.218 273.324 271.48 273.867 Z " fill="rgb(190,111,114)"/><path d=" M 254.914 222.67 C 252.957 223.668 250.657 224.816 248.857 223.42 C 247.535 222.386 246.991 220.241 247.072 218.277 C 247.153 216.313 247.745 214.452 248.213 212.579 C 249.167 208.729 249.683 204.723 250.747 200.892 C 251.812 197.06 253.549 193.368 256.307 191.344 C 261.386 187.621 267.958 190.697 273.594 188.636 C 275.98 187.772 278.057 186.032 280.276 184.666 C 282.495 183.3 284.991 182.249 287.387 182.98 C 290.193 183.808 292.265 186.799 294.88 188.322 C 297.744 189.99 301.171 189.875 303.776 192.105 C 305.624 193.688 306.788 196.245 307.824 198.752 C 311.137 206.812 313.754 215.301 315.627 224.072 C 316.376 227.213 316.805 230.463 316.901 233.741 C 316.925 237.935 316.028 242.044 315.14 246.093 L 313.708 252.499 C 313.179 254.916 312.635 257.333 311.632 259.521 C 310.63 261.708 309.084 263.551 307.17 264.186 C 304.784 264.965 302.006 263.455 300.965 260.626 C 300.326 258.874 300.354 256.868 300.321 254.94 C 300.268 251.165 299.949 247.403 299.367 243.7 C 299.071 241.845 298.675 239.917 297.677 238.515 C 296.388 236.702 294.336 236.098 292.427 236.056 C 290.193 236.019 287.745 236.787 286.442 239.077 C 285.397 240.926 285.216 243.525 283.827 244.969 C 283.209 245.569 282.476 245.947 281.703 246.063 C 278.461 246.574 275.361 244.217 274.195 240.352 C 273.756 238.757 273.542 236.775 272.348 236.025 C 271.728 235.633 270.988 235.705 270.325 235.451 C 268.292 234.672 267.757 231.409 267.571 228.732 C 267.356 225.595 268.182 219.401 265.103 219.19 C 261.786 218.96 257.964 221.383 254.914 222.67 Z " fill="rgb(63,61,86)"/><path d=" M 262.125 263.938 C 261.066 264.585 259.906 265.34 259.491 266.73 C 259.329 267.274 259.3 267.872 259.152 268.428 C 258.479 270.887 255.854 271.371 254.499 273.329 C 253.887 274.319 253.476 275.482 253.301 276.719 C 252.395 281.596 252.688 286.707 254.141 291.367 C 254.561 292.844 255.21 294.2 256.05 295.356 C 258.474 298.486 262.655 298.425 265.676 296.292 C 268.697 294.159 270.783 290.418 272.554 286.623 C 273.492 284.713 274.277 282.689 274.897 280.58 C 275.442 278.436 275.83 276.233 276.057 274 C 277.116 265.292 278.5 255.635 278.023 246.806 C 276.591 246.691 273.857 246.564 272.592 247.701 C 271.007 249.127 271.446 252.003 270.874 254.088 C 269.518 259.104 265.586 261.75 262.125 263.938 Z " fill="rgb(63,61,86)"/><path d=" M 263.366 265.092 C 261.576 265.231 258.369 262.723 256.575 262.85 C 255.353 260.151 254.274 257.353 253.344 254.475 C 254.298 252.74 255.835 252.317 258.159 254.475 C 260.025 256.137 262.603 261.883 263.366 265.092 Z " fill="rgb(63,61,86)"/><path d=" M 290.346 169.613 C 288.404 170.912 287.201 170.973 286.242 170.713 C 285.282 170.453 283.378 171.662 283.378 171.662 C 266.554 178.949 265.891 182.388 265.891 182.388 L 285.368 173.68 C 289.115 171.601 289.186 172.332 289.186 172.332 C 292.05 175.741 295.696 173.432 295.696 173.432 C 295.696 173.432 300.741 170.411 299.257 167.504 C 297.772 164.597 292.293 168.338 290.346 169.613 Z  M 298.46 169.069 C 298.46 169.069 297.028 173.904 291.878 173.118 C 291.878 173.118 289.349 172.647 290.418 170.26 C 290.418 170.26 295.668 167.468 297.057 167.667 C 298.445 167.867 298.445 169.093 298.445 169.093 L 298.46 169.069 Z " fill="rgb(232,232,240)"/><g opacity="0.1"><path d=" M 290.346 169.613 C 288.404 170.912 287.201 170.973 286.242 170.713 C 285.282 170.453 283.378 171.662 283.378 171.662 C 266.554 178.949 265.891 182.388 265.891 182.388 L 285.368 173.68 C 289.115 171.601 289.186 172.332 289.186 172.332 C 292.05 175.741 295.696 173.432 295.696 173.432 C 295.696 173.432 300.741 170.411 299.257 167.504 C 297.772 164.597 292.293 168.338 290.346 169.613 Z  M 298.46 169.069 C 298.46 169.069 297.028 173.904 291.878 173.118 C 291.878 173.118 289.349 172.647 290.418 170.26 C 290.418 170.26 295.668 167.468 297.057 167.667 C 298.445 167.867 298.445 169.093 298.445 169.093 L 298.46 169.069 Z " fill="rgb(0,0,0)"/></g><path d=" M 291.415 156.137 C 288.504 156.258 287.898 159.014 287.898 159.014 C 286.701 160.823 286.59 163.415 287.626 165.377 L 282.457 171.885 C 281.478 172.364 280.636 173.206 280.042 174.302 C 280.042 174.302 268.693 186.993 268.86 188.147 C 268.86 188.147 270.711 189.356 282.457 175.801 L 285.54 172.344 C 285.54 172.344 286.223 165.885 291.038 164.658 C 291.038 164.658 291.515 164.924 291.768 163.485 C 292.038 162.796 292.398 162.169 292.833 161.63 C 293.472 160.881 294.327 156.01 291.415 156.137 Z  M 292.231 160.506 C 292.231 160.506 290.671 165.607 288.447 164.132 C 288.447 164.132 288.385 159.255 288.385 159.255 C 292.241 154.506 292.231 160.506 292.231 160.506 Z " fill="rgb(232,232,240)"/><g opacity="0.1"><ellipse vector-effect="non-scaling-stroke" cx="282.55716576728156" cy="173.64373796565792" rx="0.6156758637666826" ry="0.7795450953873058" fill="rgb(0,0,0)"/></g><path d=" M 336.417 148.994 C 334.62 147.796 332.755 146.77 330.838 145.925 C 328.288 145.009 325.669 144.442 323.025 144.233 Q 310.492 142.722 297.882 142.48 C 296.398 142.48 294.88 142.438 293.472 143.084 C 292.215 143.695 291.075 144.641 290.131 145.858 C 288.496 147.838 287.197 150.219 286.313 152.856 C 286.029 153.517 285.945 154.285 286.075 155.019 C 286.266 155.72 287.029 156.186 287.463 155.69 C 285.19 158.01 284.267 161.853 285.134 165.383 C 283.787 166.275 282.906 167.994 282.81 169.915 C 286.28 170.729 289.852 170.509 293.243 169.275 C 292.231 168.948 291.186 170.151 291.124 171.468 C 291.138 172.818 291.748 174.043 292.704 174.641 C 293.651 175.208 294.693 175.47 295.739 175.402 C 299.782 175.402 303.714 173.668 307.747 173.444 C 310.831 173.269 314.009 173.976 316.954 172.84 C 320.371 171.498 323.421 167.697 326.943 168.489 C 329.754 169.124 331.587 172.429 333.42 175.197 C 336.35 179.614 339.973 183.192 343.566 186.739 C 346.335 189.47 349.227 192.274 352.658 193.199 C 353.685 193.553 354.774 193.488 355.77 193.012 C 356.602 192.448 357.301 191.613 357.794 190.594 C 361.493 183.947 361.497 175.577 361.283 167.788 C 361.173 163.806 360.485 163.268 357.574 161.618 Q 352.506 158.736 347.475 155.714 Q 341.92 152.427 336.417 148.994 Z " fill="rgb(251,190,190)"/><path d=" M 375.099 163.908 C 374.531 164.339 373.929 164.697 373.305 164.978 C 372.26 165.292 371.195 164.73 370.179 164.295 C 365.883 162.482 361.111 162.911 356.958 160.669 C 358.32 170.565 356.538 180.742 352 188.981 C 351.141 190.528 350.009 192.111 348.52 192.232 C 349.184 194.812 351.227 196.371 353.164 197.532 C 356.259 199.386 359.496 200.832 362.824 201.846 C 363.779 202.13 364.943 202.269 365.497 201.242 C 365.831 200.638 365.974 199.604 366.561 199.641 C 367.458 200.849 367.162 203.327 368.403 203.871 C 368.79 203.996 369.195 203.996 369.582 203.871 L 372.35 203.266 C 373.181 203.175 373.981 202.827 374.679 202.251 C 375.117 201.77 375.478 201.187 375.744 200.535 C 378.846 193.845 380.039 186.104 380.516 178.46 C 380.75 174.665 381.041 170.64 380.836 166.833 C 380.645 163.57 377.343 162.585 375.099 163.908 Z " fill="rgb(232,232,240)"/><g opacity="0.1"><path d=" M 375.099 163.908 C 374.531 164.339 373.929 164.697 373.305 164.978 C 372.26 165.292 371.195 164.73 370.179 164.295 C 365.883 162.482 361.111 162.911 356.958 160.669 C 358.32 170.565 356.538 180.742 352 188.981 C 351.141 190.528 350.009 192.111 348.52 192.232 C 349.184 194.812 351.227 196.371 353.164 197.532 C 356.259 199.386 359.496 200.832 362.824 201.846 C 363.779 202.13 364.943 202.269 365.497 201.242 C 365.831 200.638 365.974 199.604 366.561 199.641 C 367.458 200.849 367.162 203.327 368.403 203.871 C 368.79 203.996 369.195 203.996 369.582 203.871 L 372.35 203.266 C 373.181 203.175 373.981 202.827 374.679 202.251 C 375.117 201.77 375.478 201.187 375.744 200.535 C 378.846 193.845 380.039 186.104 380.516 178.46 C 380.75 174.665 381.041 170.64 380.836 166.833 C 380.645 163.57 377.343 162.585 375.099 163.908 Z " fill="rgb(0,0,0)"/></g><path d=" M 215.105 359.925 C 213.745 357.713 212.346 355.368 210.332 354.202 C 209.172 353.61 207.95 353.231 206.705 353.078 C 199.99 351.869 193.26 350.613 186.483 350.377 C 184.269 350.298 181.892 350.377 180.088 352.015 C 178.021 353.882 177.224 357.32 177.11 360.529 C 176.859 368.282 179.583 375.71 184.421 380.471 C 188.478 384.387 193.604 386.024 198.606 387.318 C 201.235 388.001 203.88 388.611 206.533 389.131 C 209.187 389.65 211.888 390.061 214.451 391.101 C 219.93 393.324 224.765 398.352 230.511 398.769 C 230.781 398.822 231.057 398.763 231.299 398.6 C 231.551 398.342 231.72 397.977 231.776 397.573 C 233.041 391.922 237.427 378.392 231.776 374.44 C 228.822 372.379 225.543 372.289 222.65 369.672 C 219.758 367.056 217.3 363.496 215.105 359.925 Z " fill="rgb(190,111,114)"/><path d=" M 166.858 397.434 C 163.14 393.336 158.009 391.167 155.308 385.952 C 154.12 383.656 153.518 380.96 152.922 378.314 L 151.165 370.325 C 151.03 369.834 150.968 369.315 150.984 368.796 C 151.118 367.128 152.669 366.336 153.976 366.077 C 160.658 364.759 167.617 368.167 172.618 373.932 C 177.62 379.697 180.832 387.65 182.717 395.893 C 182.85 396.312 182.87 396.775 182.775 397.21 C 182.611 397.597 182.354 397.906 182.04 398.092 C 179.625 399.905 176.379 402.546 173.559 403.102 C 170.738 403.658 168.867 399.621 166.858 397.434 Z " fill="rgb(190,111,114)"/><path d=" M 329.979 362.989 L 349.547 372.905 C 353.384 374.848 355.518 380.057 354.563 385.148 L 340.001 462.698 L 303.595 462.698 L 309.933 374.47 C 309.933 374.47 323.774 359.967 329.979 362.989 Z " fill="rgb(63,61,86)"/><path d=" M 348.878 353.682 C 348.516 354.686 347.981 355.677 348.062 356.77 C 348.11 357.423 348.377 358.039 348.339 358.686 C 348.263 359.955 347.103 360.662 346.101 360.674 C 345.098 360.686 344.091 360.275 343.103 360.493 C 341.481 360.843 340.383 362.735 338.98 363.829 C 337.023 365.351 334.579 365.261 332.298 365.521 C 327.525 366.064 323.01 368.331 318.691 370.911 C 315.756 372.663 312.639 374.911 311.532 378.767 C 309.943 384.206 313.026 389.934 313.708 395.687 C 313.891 397.624 313.936 399.578 313.842 401.525 C 313.341 421.841 312.477 442.393 311.561 462.686 L 136.613 462.946 L 145.228 443.832 C 153.628 425.189 162.252 406.196 174.924 391.941 C 176.803 389.792 178.915 387.993 181.195 386.599 L 191.356 398.08 C 192.169 399.105 193.113 399.948 194.148 400.576 C 196.057 401.561 198.195 400.999 200.243 401.084 C 204.18 401.247 207.779 403.791 211.196 406.275 C 213.702 407.997 216.113 409.933 218.412 412.07 C 219.758 413.375 221.701 414.191 223.104 415.393 L 222.775 393.699 C 222.741 391.741 222.717 389.735 223.18 387.868 C 224.078 384.242 226.64 381.68 227.872 378.229 C 228.43 376.676 228.702 374.984 229.17 373.395 C 229.831 371.352 230.653 369.398 231.623 367.563 L 237.956 354.679 C 239.522 351.501 241.083 348.322 242.782 345.258 C 250.213 331.837 260.216 321.087 269.948 310.3 C 269.722 307.226 270.282 304.141 271.547 301.501 C 272.045 300.622 272.459 299.671 272.778 298.667 C 272.984 297.477 273.044 296.254 272.955 295.041 C 272.955 294.733 272.955 294.437 272.955 294.111 C 273.06 292.135 273.713 290.269 274.797 288.841 C 275.914 287.373 277.407 286.478 278.877 285.644 C 286.485 281.337 294.394 277.942 302.502 275.504 C 303.796 275.118 305.165 274.755 306.44 275.244 C 306.826 276.822 308.144 277.378 309.461 277.776 L 310.306 278.024 C 312.543 278.636 314.629 279.926 316.386 281.783 C 318.233 283.825 319.502 286.557 320.739 289.246 C 330.031 309.448 334.312 335.952 348.687 350.631 C 349.384 351.326 349.241 352.716 348.878 353.682 Z " fill="rgb(108,99,255)"/><g opacity="0.1"><path d=" M 407.501 105.557 C 402.471 119.559 392.558 133.355 379.614 133.355 C 378.558 133.356 377.502 133.289 376.45 133.156 C 375.999 132.405 375.498 131.706 374.951 131.065 C 372.78 128.515 369.702 127.856 367.568 125.626 C 368.866 122.738 371.749 120.115 373.711 117.909 Q 376.889 114.35 380.306 111.159 C 384.86 106.902 389.708 103.174 394.792 100.022 C 398.018 98.022 401.387 96.233 404.948 95.623 C 405.396 95.495 405.865 95.548 406.289 95.774 C 406.843 96.161 407.043 97.031 407.177 97.81 C 407.84 101.678 406.948 101.629 407.501 105.557 Z " fill="rgb(0,0,0)"/></g><ellipse vector-effect="non-scaling-stroke" cx="379.6144089111507" cy="91.65251428957333" rx="31.97696346695136" ry="40.488001078255145" fill="rgb(251,190,190)"/><path d=" M 446.208 226.308 C 445.687 231.203 444.779 236.02 443.497 240.685 C 443.019 242.383 442.432 244.038 441.826 245.67 C 438.271 255.212 436.319 265.527 435.388 276.018 C 435.317 276.844 435.197 277.662 435.03 278.465 C 434.328 281.849 432.849 284.871 431.718 288.056 C 430.564 291.495 429.607 295.036 428.854 298.649 C 428.582 299.556 428.49 300.533 428.587 301.495 C 428.763 302.516 429.346 303.308 429.756 304.233 C 431.875 308.856 429.427 314.506 428.601 319.739 C 428.32 321.552 428.196 323.522 427.265 324.936 C 426.473 326.145 425.241 326.7 424.072 327.208 C 407.405 334.382 390.347 340.005 373.033 344.032 C 370.451 344.636 367.783 345.198 365.22 344.594 C 362.657 343.989 360.104 341.983 359.226 338.853 C 358.72 337.04 358.806 335.07 358.848 333.148 C 358.944 329.112 358.848 325.051 358.677 320.984 C 358.123 307.599 356.868 294.165 359.631 281.342 C 360.457 277.559 361.621 273.909 362.557 270.168 C 364.385 262.874 364.857 255.333 365.315 247.767 C 365.693 241.531 366.06 235.27 367.162 229.118 C 367.983 224.532 367.439 219.764 367.392 215.062 C 367.297 204.304 369.794 193.764 374.551 184.847 C 375.376 183.306 376.283 181.784 376.717 180.013 C 377.328 177.475 376.908 174.75 376.631 172.115 C 375.935 165.397 376.216 158.575 377.462 151.986 C 377.854 149.52 378.599 147.167 379.662 145.042 C 380.851 142.849 382.554 141.193 384.258 139.634 C 394.15 130.604 405.065 123.524 416.631 118.634 C 417.696 122.043 418.717 126.025 419.533 129.512 C 419.643 129.983 419.719 130.581 419.414 130.884 C 419.108 131.186 418.793 131.023 418.459 131.035 C 417.754 131.132 417.168 131.768 416.984 132.636 C 416.818 133.492 416.881 134.394 417.166 135.198 C 417.815 137.313 419.213 138.891 420.559 140.383 L 427.327 147.858 C 428.137 148.818 429.021 149.672 429.966 150.408 C 430.816 151.013 431.742 151.442 432.615 151.998 C 436.118 154.24 438.538 158.609 439.889 163.274 C 441.239 167.939 440.628 173.547 442.389 177.977 C 448.241 192.661 448.193 210.035 446.208 226.308 Z " fill="rgb(232,232,240)"/><path d=" M 441.76 379.957 C 443.816 390.452 443.765 401.431 441.612 411.894 C 441.225 413.762 440.772 415.695 441.077 417.587 C 441.254 418.663 441.669 419.672 441.764 420.766 C 441.806 421.763 441.721 422.763 441.511 423.727 C 439.392 436.417 440.151 449.603 441.005 462.553 C 440.643 462.553 440.528 462.764 440.146 462.764 L 430.949 462.764 C 430.787 459.362 427.446 456.812 425.814 454.099 C 422.616 448.713 421.5 441.793 422.774 435.251 C 424.206 427.999 428.425 422.204 430.587 415.273 C 432.973 407.646 432.768 399.011 435.302 391.469 C 436.758 387.112 439.478 383.71 441.76 379.957 Z " fill="rgb(63,61,86)"/><g opacity="0.1"><path d=" M 441.76 379.957 C 443.816 390.452 443.765 401.431 441.612 411.894 C 441.225 413.762 440.772 415.695 441.077 417.587 C 441.254 418.663 441.669 419.672 441.764 420.766 C 441.806 421.763 441.721 422.763 441.511 423.727 C 439.392 436.417 440.151 449.603 441.005 462.553 C 440.643 462.553 440.528 462.764 440.146 462.764 L 430.949 462.764 C 430.787 459.362 427.446 456.812 425.814 454.099 C 422.616 448.713 421.5 441.793 422.774 435.251 C 424.206 427.999 428.425 422.204 430.587 415.273 C 432.973 407.646 432.768 399.011 435.302 391.469 C 436.758 387.112 439.478 383.71 441.76 379.957 Z " fill="rgb(0,0,0)"/></g><path d=" M 422.459 321.794 C 414.641 320.21 407.067 325.196 399.516 328.223 C 387.981 332.846 375.281 333.13 364.623 340.388 C 363.671 340.968 362.808 341.758 362.075 342.72 C 361.21 344.077 360.665 345.715 360.505 347.446 C 360.028 351.274 360.613 355.192 362.161 358.535 C 362.824 359.961 363.659 361.272 364.175 362.801 C 365.397 366.427 364.58 370.609 364.37 374.573 C 363.893 383.426 366.604 392.043 367.148 400.89 C 367.473 406.105 367.048 411.435 368.017 416.523 C 368.623 419.714 369.764 422.723 370.236 425.95 C 370.709 429.177 370.503 432.332 370.661 435.523 C 371.105 444.666 374.393 453.549 373.591 462.656 L 435.636 462.915 C 433.336 452.781 431.422 442.303 433.508 432.096 C 434.231 428.869 435.131 425.709 436.199 422.639 C 439.669 412.021 443.234 401.374 445.148 390.146 C 447.062 378.918 447.234 366.929 443.993 356.196 C 440.385 344.231 432.715 334.278 431.045 321.649 C 428.181 321.165 425.327 322.374 422.459 321.794 Z " fill="rgb(63,61,86)"/><path d=" M 357.345 71.904 C 356.744 70.309 355.04 69.257 353.894 70.266 C 352.749 71.276 352.897 73.53 352.615 75.342 C 352.071 78.908 349.274 81.337 346.411 81.905 C 345.07 82.177 343.576 82.068 342.535 80.969 C 341.865 80.156 341.372 79.138 341.104 78.013 C 338.24 68.345 339.982 57.056 344.669 48.62 C 345.663 46.73 346.897 45.06 348.32 43.677 C 352.267 40.051 357.546 40.051 362.428 40.245 C 363.419 40.381 364.422 40.234 365.363 39.816 C 366.08 39.338 366.736 38.727 367.31 38.003 C 371.935 32.854 378.326 30.691 384.492 31.035 C 390.658 31.38 396.591 34.057 402.07 37.616 C 404.69 39.314 407.258 41.242 409.31 43.925 C 414.24 50.349 415.443 59.866 416.412 68.738 C 417.452 78.31 418.488 88.148 416.736 97.557 C 415.744 102.886 413.873 108.095 414.092 113.564 C 410.128 114.998 406.099 116.126 402.027 116.942 C 400.118 117.323 397.913 117.547 396.514 115.837 C 395.923 115.034 395.491 114.064 395.254 113.008 C 393.742 107.346 394.247 100.88 391.961 95.647 C 390.019 91.31 386.459 88.533 382.526 88.287 C 381.027 88.22 379.323 88.685 378.555 90.311 C 378.26 91.108 378.033 91.943 377.877 92.801 C 376.818 96.843 372.479 98.844 369.62 96.59 C 368.189 95.454 367.21 93.568 365.917 92.154 C 364.275 90.371 362.17 89.453 360.328 88.015 C 354.19 83.198 359.722 78.219 357.345 71.904 Z " fill="rgb(63,61,86)"/><path d=" M 309.48 277.783 C 306.869 278.84 304.492 280.756 301.953 282.103 C 297.481 284.466 292.565 285.016 287.874 286.527 C 283.367 288.057 279.022 290.273 274.935 293.126 C 274.635 293.331 273.69 294.334 272.935 295.023 C 272.935 294.715 272.935 294.419 272.935 294.093 C 273.041 292.116 273.693 290.251 274.778 288.823 C 275.895 287.355 277.388 286.46 278.858 285.626 C 286.472 281.323 294.388 277.935 302.502 275.504 C 303.796 275.118 305.165 274.755 306.44 275.244 C 306.845 276.822 308.163 277.378 309.48 277.783 Z " fill="rgb(63,61,86)"/><g opacity="0.1"><path d=" M 241.818 432.755 C 246.953 440.006 251.559 447.923 257.534 454.038 C 250.637 442.442 240.744 434.701 231.8 425.957 C 229.986 424.18 226.359 421.66 225.261 419.092 C 223.529 415.067 227.356 417.925 228.946 419.019 C 233.909 422.433 238.071 427.473 241.818 432.755 Z " fill="rgb(0,0,0)"/></g><g opacity="0.1"><path d=" M 426.592 221.081 C 426.348 223.692 425.58 226.169 424.802 228.599 C 422.893 234.642 420.846 240.624 417.963 245.984 C 415.977 249.677 413.615 253.012 411.544 256.62 C 409.417 260.449 407.467 264.43 405.702 268.543 Q 400.819 279.493 396.185 290.624 C 394.71 294.177 393.245 297.761 391.341 300.969 C 390.004 303.135 388.57 305.201 387.045 307.157 C 383.705 311.617 380.273 315.738 377.285 320.573 C 375.806 322.99 373.338 323.921 371.033 324.743 C 370.262 325.067 369.459 325.25 368.647 325.286 C 367.829 325.214 367.025 324.988 366.26 324.616 C 363.686 323.621 361.167 322.41 358.72 320.99 C 358.166 307.605 356.911 294.171 359.674 281.348 C 360.5 277.565 361.664 273.915 362.6 270.174 C 364.428 262.88 364.9 255.339 365.358 247.773 C 365.926 246.256 366.532 244.752 367.12 243.289 C 371.1 233.33 374.455 222.362 373.419 211.261 C 373.156 209.26 372.973 207.243 372.871 205.218 C 372.881 202.736 373.211 200.272 373.849 197.924 C 376.74 186.703 383.368 177.649 391.985 173.148 C 393.33 172.353 394.796 171.94 396.281 171.94 C 398.19 172.067 400.018 173.323 401.879 172.864 C 408.184 176.375 413.286 182.37 417.099 189.633 C 420.912 196.897 421.122 206.602 425.27 213.564 C 426.496 215.679 426.831 218.477 426.592 221.081 Z " fill="rgb(0,0,0)"/></g><path d=" M 288.595 188.286 L 288.394 187.736 L 280.596 192.292 L 279.293 193.054 L 277.994 193.809 L 288.991 223.994 L 290.289 223.232 L 291.592 222.471 L 299.39 217.915 L 299.19 217.371 L 291.391 221.927 L 291.191 221.377 L 298.99 216.821 L 298.789 216.271 L 290.99 220.827 L 290.79 220.277 L 298.589 215.721 L 298.393 215.171 L 290.59 219.728 L 290.389 219.184 L 298.192 214.627 L 297.992 214.077 L 290.189 218.634 L 289.988 218.084 L 297.792 213.527 L 297.591 212.978 L 289.793 217.534 L 289.592 216.984 L 297.391 212.428 L 297.19 211.884 L 289.392 216.44 L 289.191 215.89 L 296.99 211.334 L 296.789 210.784 L 288.991 215.34 L 288.79 214.79 L 296.594 210.234 L 296.393 209.684 L 288.59 214.241 L 288.389 213.697 L 296.193 209.134 L 295.992 208.59 L 288.189 213.147 L 287.993 212.597 L 295.792 208.04 L 295.591 207.49 L 287.793 212.047 L 287.592 211.497 L 295.391 206.941 L 295.19 206.391 L 287.392 210.947 L 287.191 210.403 L 294.99 205.847 L 294.794 205.297 L 286.991 209.853 L 286.791 209.303 L 294.594 204.747 L 294.393 204.197 L 286.59 208.753 L 286.394 208.204 L 294.193 203.653 L 293.993 203.103 L 286.194 207.66 L 285.993 207.11 L 293.792 202.553 L 293.592 202.003 L 285.793 206.56 L 285.593 206.01 L 293.391 201.454 L 293.195 200.904 L 285.392 205.466 L 285.192 204.916 L 292.995 200.36 L 292.795 199.81 L 284.991 204.366 L 284.791 203.816 L 292.594 199.26 L 292.394 198.71 L 284.595 203.266 L 284.395 202.717 L 292.193 198.16 L 291.993 197.616 L 284.194 202.173 L 283.994 201.623 L 291.792 197.066 L 291.592 196.516 L 283.793 201.073 L 283.593 200.523 L 291.396 195.967 L 291.196 195.423 L 283.392 199.973 L 283.192 199.429 L 290.995 194.873 L 290.795 194.323 L 282.991 198.879 L 282.796 198.329 L 290.594 193.773 L 290.394 193.223 L 282.595 197.779 L 282.395 197.23 L 290.193 192.673 L 289.993 192.129 L 282.194 196.686 L 281.994 196.136 L 289.793 191.579 L 289.597 191.029 L 281.794 195.586 L 281.593 195.036 L 289.396 190.479 L 289.196 189.93 L 281.393 194.486 L 281.192 193.942 L 288.996 189.386 L 288.795 188.836 L 280.992 193.392 L 280.796 192.842 L 288.595 188.286 L 288.595 188.286 Z " fill="rgb(0,0,0)"/><g opacity="0.1"><path d=" M 313.078 254.674 C 312.071 256.831 310.53 258.705 308.616 259.339 C 306.23 260.119 303.452 258.608 302.412 255.78 C 301.772 254.028 301.801 252.021 301.767 250.094 C 301.714 246.318 301.395 242.557 300.813 238.854 C 300.517 236.998 300.121 235.071 299.123 233.669 C 297.835 231.856 295.782 231.252 293.873 231.209 C 291.64 231.173 289.191 231.94 287.888 234.231 C 286.843 236.08 286.662 238.678 285.273 240.123 C 284.655 240.722 283.922 241.1 283.149 241.216 C 279.907 241.728 276.807 239.371 275.642 235.506 C 275.202 233.91 274.988 231.928 273.795 231.179 C 273.174 230.786 272.434 230.859 271.771 230.605 C 269.738 229.825 269.203 226.562 269.017 223.885 C 268.802 220.749 269.628 214.555 266.55 214.343 C 263.256 214.114 259.434 216.537 256.384 217.824 C 254.427 218.821 252.127 219.969 250.327 218.573 C 249.005 217.54 248.461 215.395 248.542 213.431 C 248.623 211.467 249.215 209.606 249.683 207.732 C 250.485 204.566 250.967 201.278 251.702 198.063 C 251.356 198.973 251.049 199.905 250.781 200.855 C 249.721 204.668 249.225 208.711 248.251 212.542 C 247.774 214.416 247.192 216.277 247.11 218.241 C 247.029 220.205 247.588 222.35 248.895 223.384 C 250.695 224.779 252.995 223.631 254.952 222.634 C 258.002 221.347 261.825 218.924 265.118 219.153 C 268.196 219.365 267.371 225.559 267.585 228.695 C 267.771 231.372 268.306 234.636 270.339 235.415 C 271.003 235.669 271.742 235.596 272.363 235.989 C 273.556 236.739 273.795 238.721 274.21 240.316 C 275.376 244.181 278.475 246.538 281.717 246.027 C 282.49 245.91 283.224 245.532 283.841 244.933 C 285.23 243.489 285.411 240.89 286.456 239.041 C 287.759 236.739 290.208 235.971 292.441 236.019 C 294.35 236.056 296.427 236.66 297.691 238.479 C 298.689 239.881 299.085 241.809 299.381 243.664 C 299.963 247.367 300.283 251.129 300.335 254.904 C 300.369 256.831 300.335 258.838 300.98 260.59 C 302.015 263.418 304.798 264.929 307.184 264.15 C 309.093 263.515 310.64 261.642 311.647 259.484 C 312.413 257.723 313.003 255.847 313.403 253.901 C 313.298 254.179 313.193 254.426 313.078 254.674 Z " fill="rgb(0,0,0)"/></g><path d=" M 337.629 250.662 C 333.811 246.021 330.36 240.884 326.934 235.76 C 323.65 230.859 320.357 225.934 317.713 220.453 C 316.076 217.063 314.615 213.364 312.1 210.989 C 310.191 209.176 307.857 208.33 305.748 206.947 C 304.23 205.95 302.832 204.687 301.333 203.653 C 298.064 201.416 294.385 200.317 290.671 200.469 C 289.129 200.535 287.378 200.988 286.585 202.668 C 286.313 203.242 286.184 203.913 285.908 204.481 C 285.053 206.294 282.996 206.808 282.295 208.711 C 281.111 211.914 284.681 214.857 284.905 218.38 C 285.01 220.145 284.242 221.788 284.018 223.535 C 283.636 226.556 284.872 229.439 286.065 232.073 C 288.618 237.718 291.725 243.899 296.742 245.32 C 298.517 245.821 300.393 245.658 302.125 246.371 C 303.522 247.041 304.814 248.017 305.943 249.254 C 310.656 253.957 314.81 259.495 318.276 265.697 C 319.889 268.579 321.35 271.588 322.977 274.453 C 328.157 283.527 334.954 290.927 342.817 296.05 L 348.673 272.483 C 349.575 268.857 350.286 263.884 347.719 261.056 C 344.502 257.387 340.793 254.493 337.629 250.662 Z " fill="rgb(251,190,190)"/><path d=" M 401.378 169.867 C 399.516 170.32 397.669 169.069 395.779 168.942 C 394.295 168.942 392.829 169.354 391.484 170.151 C 382.868 174.654 376.241 183.708 373.348 194.927 C 372.716 197.284 372.39 199.756 372.384 202.245 C 372.412 204.27 372.747 206.264 372.933 208.288 C 373.968 219.371 370.613 230.345 366.637 240.316 C 364.437 245.821 361.955 251.628 362.476 257.762 C 362.543 258.584 362.648 259.509 362.251 260.179 C 361.774 260.977 360.743 261.019 360.299 261.859 C 359.856 262.699 360.261 263.968 359.908 264.917 C 359.431 266.259 357.875 266.095 356.763 265.618 C 353.715 264.312 350.891 262.281 348.444 259.635 C 344.478 262.566 340.235 266.059 338.932 271.631 C 338.626 273.052 338.414 274.504 338.297 275.97 L 336.25 297.603 C 335.978 300.468 335.844 303.828 337.553 305.737 C 340.498 309.037 345.743 304.764 348.893 307.75 C 349.699 308.511 350.224 309.647 350.802 310.681 C 354.243 316.657 360.166 319.286 365.721 321.558 C 366.487 321.926 367.291 322.15 368.107 322.223 C 368.92 322.194 369.724 322.01 370.494 321.679 C 372.804 320.857 375.267 319.902 376.746 317.515 C 379.739 312.681 383.17 308.559 386.511 304.1 C 388.033 302.141 389.467 300.075 390.806 297.912 C 392.715 294.697 394.176 291.113 395.651 287.56 Q 400.275 276.429 405.158 265.479 C 406.941 261.383 408.909 257.42 411.052 253.611 C 413.128 249.985 415.486 246.661 417.471 242.975 C 420.335 237.609 422.392 231.602 424.311 225.589 C 425.089 223.172 425.857 220.676 426.105 218.072 C 426.353 215.467 426.019 212.669 424.769 210.572 C 420.621 203.605 420.416 193.906 416.603 186.642 C 412.789 179.379 407.687 173.372 401.378 169.867 Z " fill="rgb(232,232,240)"/><path d=" M 288.723 190.764 C 288.498 190.945 288.348 191.244 288.313 191.579 C 288.313 191.881 288.509 192.117 288.614 192.389 C 288.905 193.163 288.437 194.057 287.903 194.589 C 287.368 195.121 286.719 195.531 286.428 196.311 C 286.383 196.414 286.363 196.532 286.371 196.649 C 286.403 196.809 286.477 196.949 286.581 197.048 C 286.895 197.506 287.303 197.844 287.759 198.027 C 288.49 198.221 289.191 197.61 289.812 197.109 C 290.485 196.57 291.202 196.124 291.95 195.779 C 292.181 195.692 292.399 195.556 292.594 195.374 C 292.833 195.073 292.98 194.675 293.009 194.25 C 293.172 192.734 292.532 191.277 291.802 190.02 C 290.924 188.54 289.473 189.948 288.723 190.764 Z " fill="rgb(63,61,86)"/><path d="M 165.996 337.862 L 215.459 369.823 C 215.842 370.071 216.015 370.616 215.844 371.039 L 203.168 402.48 C 202.998 402.903 202.548 403.046 202.164 402.798 L 152.701 370.837 C 152.318 370.589 152.145 370.044 152.316 369.621 L 164.992 338.18 C 165.162 337.757 165.612 337.614 165.996 337.862 Z" style="stroke:none;fill:#3F3D56;stroke-miterlimit:10;"/><rect x="158.704" y="356.054" width="50.888" height="28.48" transform="matrix(0.84,0.543,-0.381,0.945,170.483,-79.427)" fill="rgb(232,232,240)"/><path d=" M 160.9 356.019 C 160.513 355.769 160.305 355.303 160.435 354.979 C 160.566 354.655 160.986 354.595 161.373 354.846 C 161.76 355.096 161.969 355.562 161.838 355.886 C 161.708 356.209 161.287 356.269 160.9 356.019 Z " fill="rgb(230,232,236)"/><path d=" M 207.032 386.385 C 206.393 385.973 206.049 385.206 206.264 384.674 C 206.478 384.143 207.17 384.046 207.808 384.458 C 208.446 384.871 208.791 385.637 208.576 386.169 C 208.362 386.701 207.67 386.797 207.032 386.385 Z " fill="rgb(230,232,236)"/><g style="opacity:0.1;"><g opacity="0.1"><path d=" M 416.727 93.302 C 415.734 98.632 413.863 103.841 414.083 109.31 C 410.118 110.744 406.089 111.872 402.017 112.688 C 400.108 113.069 397.903 113.292 396.505 111.582 C 395.914 110.78 395.482 109.81 395.245 108.754 C 393.732 103.092 394.238 96.626 391.952 91.393 C 390.009 87.056 386.449 84.279 382.516 84.032 C 381.018 83.966 379.314 84.431 378.545 86.057 C 378.251 86.854 378.024 87.689 377.868 88.546 C 376.808 92.589 372.47 94.589 369.611 92.335 C 368.179 91.199 367.201 89.314 365.907 87.9 C 364.265 86.117 362.161 85.199 360.318 83.76 C 358.658 82.467 357.861 81.162 357.522 79.814 C 357.102 82.721 356.982 85.392 360.318 87.99 C 362.161 89.429 364.265 90.347 365.907 92.13 C 367.201 93.532 368.16 95.429 369.611 96.565 C 372.474 98.807 376.808 96.819 377.868 92.777 C 378.024 91.919 378.251 91.084 378.545 90.287 C 379.314 88.661 381.018 88.196 382.516 88.262 C 386.449 88.509 390.009 91.286 391.952 95.623 C 394.238 100.856 393.732 107.322 395.245 112.984 C 395.485 114.049 395.924 115.025 396.524 115.83 C 397.922 117.523 400.132 117.317 402.036 116.936 C 406.108 116.12 410.138 114.992 414.102 113.558 C 413.868 108.089 415.753 102.88 416.746 97.55 C 417.51 93.189 417.817 88.719 417.657 84.256 C 417.581 87.303 417.27 90.333 416.727 93.302 L 416.727 93.302 Z " fill="rgb(0,0,0)"/></g><g opacity="0.1"><path d=" M 357.808 73.596 C 358.157 71.608 357.99 69.531 357.331 67.674 C 356.729 66.079 355.026 65.027 353.88 66.036 C 352.735 67.045 352.897 69.3 352.615 71.112 C 352.071 74.678 349.274 77.107 346.411 77.675 C 345.07 77.947 343.576 77.838 342.535 76.738 C 341.865 75.926 341.372 74.908 341.104 73.783 C 340.371 71.27 339.925 68.637 339.782 65.964 C 339.539 70.054 339.99 74.162 341.104 78.013 C 341.372 79.138 341.865 80.156 342.535 80.969 C 343.576 82.068 345.07 82.177 346.411 81.905 C 349.241 81.337 352.052 78.884 352.615 75.342 C 352.887 73.53 352.701 71.336 353.885 70.297 C 355.069 69.257 356.748 70.339 357.336 71.934 C 357.54 72.465 357.698 73.022 357.808 73.596 Z " fill="rgb(0,0,0)"/></g></g><path d=" M 113.621 279.056 C 111.384 279.009 109.51 280.712 109.445 282.853 L 108.575 311.324 C 108.509 313.465 110.277 315.245 112.514 315.293 L 116.572 315.379 L 116.493 317.967 L 124.61 318.139 L 124.689 315.551 L 157.154 316.24 L 157.075 318.828 L 165.191 319 L 165.27 316.412 L 169.329 316.498 C 171.566 316.545 173.44 314.842 173.505 312.701 L 174.375 284.23 C 174.441 282.09 172.673 280.309 170.436 280.262 L 113.621 279.056 Z  M 120.148 286.965 L 121.5 286.994 C 123.738 287.041 125.505 288.822 125.44 290.962 L 125.045 303.903 C 124.979 306.044 123.105 307.747 120.868 307.7 L 119.515 307.671 C 117.278 307.624 115.51 305.843 115.575 303.703 L 115.971 290.761 C 116.036 288.621 117.91 286.917 120.148 286.965 Z  M 132.322 287.223 L 133.675 287.252 C 135.912 287.299 137.68 289.08 137.615 291.22 L 137.496 295.103 C 137.465 296.101 137.032 296.994 136.362 297.669 C 136.99 298.371 137.368 299.282 137.338 300.279 L 137.219 304.162 C 137.154 306.302 135.28 308.006 133.042 307.958 L 131.69 307.929 C 129.452 307.882 127.685 306.101 127.75 303.961 L 127.869 300.078 C 127.899 299.081 128.333 298.187 129.003 297.513 C 128.348 296.791 128 295.86 128.027 294.902 L 128.145 291.019 C 128.211 288.879 130.085 287.176 132.322 287.223 Z  M 149.908 287.596 L 151.26 287.625 C 153.498 287.672 155.265 289.453 155.2 291.593 L 154.805 304.535 C 154.739 306.675 152.865 308.379 150.628 308.331 L 149.275 308.302 C 147.038 308.255 145.27 306.474 145.335 304.334 L 145.731 291.392 C 145.796 289.252 147.67 287.549 149.908 287.596 Z  M 162.082 287.854 L 163.435 287.883 C 165.672 287.931 167.44 289.711 167.375 291.852 L 166.979 304.793 C 166.914 306.934 165.04 308.637 162.802 308.589 L 161.45 308.561 C 159.212 308.513 157.445 306.733 157.51 304.592 L 157.905 291.651 C 157.971 289.51 159.845 287.807 162.082 287.854 Z  M 120.069 289.553 C 119.323 289.537 118.698 290.105 118.676 290.819 L 118.281 303.76 C 118.259 304.473 118.849 305.067 119.594 305.083 L 120.947 305.112 C 121.692 305.127 122.317 304.559 122.339 303.846 L 122.735 290.905 C 122.756 290.192 122.167 289.598 121.421 289.582 L 120.069 289.553 Z  M 132.243 289.811 C 131.498 289.796 130.873 290.364 130.851 291.077 L 130.732 294.959 C 130.711 295.672 131.3 296.266 132.045 296.282 L 133.398 296.311 C 134.144 296.327 134.769 295.758 134.79 295.045 L 134.909 291.163 C 134.931 290.45 134.341 289.856 133.596 289.84 L 132.243 289.811 Z  M 149.829 290.184 C 149.083 290.169 148.458 290.737 148.436 291.45 L 148.041 304.391 C 148.019 305.104 148.609 305.698 149.354 305.714 L 150.707 305.743 C 151.452 305.759 152.077 305.191 152.099 304.477 L 152.495 291.536 C 152.516 290.823 151.927 290.229 151.181 290.213 L 149.829 290.184 Z  M 162.003 290.443 C 161.258 290.427 160.633 290.995 160.611 291.708 L 160.215 304.65 C 160.194 305.363 160.783 305.957 161.529 305.972 L 162.881 306.001 C 163.627 306.017 164.252 305.449 164.274 304.736 L 164.669 291.794 C 164.691 291.081 164.101 290.487 163.356 290.471 L 162.003 290.443 Z  M 140.32 291.278 L 143.025 291.335 L 142.946 293.923 L 140.241 293.866 L 140.32 291.278 Z  M 131.966 298.87 C 131.221 298.855 130.596 299.423 130.574 300.136 L 130.455 304.018 C 130.434 304.731 131.023 305.325 131.769 305.341 L 133.121 305.37 C 133.867 305.386 134.492 304.817 134.514 304.104 L 134.632 300.222 C 134.654 299.509 134.064 298.915 133.319 298.899 L 131.966 298.87 Z  M 140.004 301.631 L 142.709 301.688 L 142.63 304.277 L 139.925 304.219 L 140.004 301.631 Z " fill="rgb(0,255,0)"/><path d=" M 128.151 244.133 C 126.943 244.12 125.949 245.067 125.935 246.244 L 125.749 261.907 C 125.736 263.085 126.707 264.054 127.916 264.068 L 130.107 264.092 L 130.09 265.516 L 134.474 265.565 L 134.49 264.141 L 152.023 264.338 L 152.006 265.762 L 156.389 265.811 L 156.406 264.388 L 158.598 264.412 C 159.806 264.426 160.801 263.478 160.815 262.301 L 161 246.638 C 161.014 245.461 160.042 244.491 158.834 244.478 L 128.151 244.133 Z  M 131.754 248.446 L 132.484 248.454 C 133.692 248.468 134.664 249.437 134.65 250.615 L 134.566 257.734 C 134.552 258.912 133.558 259.859 132.349 259.845 L 131.619 259.837 C 130.411 259.823 129.439 258.854 129.453 257.677 L 129.537 250.557 C 129.551 249.38 130.545 248.432 131.754 248.446 Z  M 138.328 248.52 L 139.059 248.528 C 140.267 248.541 141.239 249.511 141.225 250.688 L 141.141 257.808 C 141.127 258.985 140.132 259.933 138.924 259.919 L 136.002 259.886 L 136.019 258.462 L 138.941 258.495 C 139.344 258.5 139.675 258.184 139.68 257.791 L 139.705 255.656 L 138.244 255.639 C 137.036 255.626 136.064 254.656 136.078 253.479 L 136.111 250.631 C 136.125 249.453 137.12 248.506 138.328 248.52 Z  M 147.825 248.626 L 148.556 248.635 C 149.764 248.648 150.736 249.617 150.722 250.795 L 150.638 257.914 C 150.624 259.092 149.629 260.039 148.421 260.026 L 147.69 260.017 C 146.482 260.004 145.51 259.035 145.524 257.857 L 145.608 250.738 C 145.622 249.56 146.617 248.613 147.825 248.626 Z  M 154.4 248.7 L 155.13 248.708 C 156.339 248.722 157.311 249.691 157.297 250.869 L 157.213 257.988 C 157.199 259.166 156.204 260.113 154.996 260.099 L 154.265 260.091 C 153.057 260.078 152.085 259.108 152.099 257.931 L 152.183 250.811 C 152.197 249.634 153.192 248.687 154.4 248.7 Z  M 131.737 249.87 C 131.333 249.865 131.002 250.181 130.998 250.574 L 130.914 257.693 C 130.909 258.085 131.232 258.409 131.636 258.413 L 132.366 258.421 C 132.77 258.426 133.101 258.11 133.105 257.718 L 133.189 250.598 C 133.194 250.206 132.871 249.883 132.467 249.878 L 131.737 249.87 Z  M 138.311 249.944 C 137.908 249.939 137.577 250.255 137.573 250.647 L 137.539 253.495 C 137.534 253.887 137.858 254.211 138.261 254.215 L 139.722 254.232 L 139.764 250.672 C 139.769 250.28 139.445 249.956 139.042 249.952 L 138.311 249.944 Z  M 147.808 250.05 C 147.405 250.046 147.074 250.362 147.069 250.754 L 146.985 257.873 C 146.981 258.266 147.304 258.589 147.707 258.594 L 148.438 258.602 C 148.841 258.606 149.172 258.29 149.177 257.898 L 149.261 250.779 C 149.266 250.386 148.942 250.063 148.539 250.058 L 147.808 250.05 Z  M 154.383 250.124 C 153.98 250.12 153.649 250.436 153.644 250.828 L 153.56 257.947 C 153.555 258.34 153.879 258.663 154.282 258.667 L 155.013 258.676 C 155.416 258.68 155.747 258.364 155.751 257.972 L 155.836 250.852 C 155.84 250.46 155.517 250.137 155.114 250.132 L 154.383 250.124 Z  M 142.686 250.705 L 144.147 250.721 L 144.13 252.145 L 142.669 252.129 L 142.686 250.705 Z  M 142.619 256.4 L 144.08 256.417 L 144.063 257.841 L 142.602 257.824 L 142.619 256.4 Z " fill="rgb(162,86,228)"/><path d=" M 78.421 238.154 C 77.856 238.154 77.389 238.661 77.389 239.273 L 77.389 240.391 L 74.292 240.391 C 74.022 240.391 73.748 240.498 73.554 240.71 C 73.359 240.92 73.26 241.217 73.26 241.51 L 73.26 263.881 C 73.26 264.174 73.359 264.471 73.554 264.683 C 73.748 264.893 74.022 265 74.292 265 L 95.968 265 C 96.238 265 96.512 264.893 96.708 264.683 C 96.901 264.471 97 264.174 97 263.881 L 97 241.51 C 97 241.217 96.901 240.92 96.708 240.71 C 96.512 240.498 96.238 240.391 95.968 240.391 L 92.871 240.391 L 92.871 239.273 C 92.871 238.661 92.404 238.154 91.839 238.154 L 90.807 238.154 C 90.242 238.154 89.775 238.661 89.775 239.273 L 89.775 240.391 L 80.485 240.391 L 80.485 239.273 C 80.485 238.661 80.018 238.154 79.453 238.154 L 78.421 238.154 Z  M 78.421 239.273 L 79.453 239.273 L 79.453 242.629 L 78.421 242.629 L 78.421 239.273 Z  M 90.807 239.273 L 91.839 239.273 L 91.839 242.629 L 90.807 242.629 L 90.807 239.273 Z  M 74.292 241.51 L 77.389 241.51 L 77.389 242.629 C 77.389 243.24 77.856 243.747 78.421 243.747 L 79.453 243.747 C 80.018 243.747 80.485 243.24 80.485 242.629 L 80.485 241.51 L 89.775 241.51 L 89.775 242.629 C 89.775 243.24 90.242 243.747 90.807 243.747 L 91.839 243.747 C 92.404 243.747 92.871 243.24 92.871 242.629 L 92.871 241.51 L 95.968 241.51 L 95.968 245.425 L 74.292 245.425 L 74.292 241.51 Z  M 74.292 246.544 L 95.968 246.544 L 95.968 263.881 L 74.292 263.881 L 74.292 246.544 Z  M 77.905 251.577 L 77.905 253.814 L 78.937 253.814 L 78.937 251.577 L 77.905 251.577 Z  M 82.55 251.577 C 82.513 251.791 82.13 252.89 81.001 252.89 L 81.001 253.814 L 82.55 253.814 L 82.55 258.848 L 83.582 258.848 L 83.582 251.577 L 82.55 251.577 Z  M 87.864 251.577 C 87.535 251.577 87.233 251.636 86.961 251.756 C 86.696 251.87 86.457 252.042 86.257 252.261 C 86.059 252.477 85.908 252.731 85.806 253.019 C 85.699 253.32 85.645 253.64 85.646 253.963 C 85.646 254.297 85.695 254.607 85.789 254.894 C 85.884 255.179 86.021 255.429 86.202 255.639 C 86.384 255.848 86.603 256.012 86.864 256.13 C 87.145 256.255 87.447 256.316 87.751 256.311 C 88.039 256.313 88.323 256.243 88.581 256.106 C 88.839 255.97 89.041 255.763 89.186 255.483 L 89.207 255.501 C 89.194 255.656 89.178 255.82 89.162 255.997 C 89.146 256.177 89.119 256.356 89.081 256.532 C 89.045 256.711 88.994 256.881 88.936 257.045 C 88.878 257.203 88.797 257.35 88.696 257.48 C 88.597 257.608 88.474 257.711 88.335 257.784 C 88.192 257.862 88.023 257.9 87.826 257.9 C 87.539 257.9 87.313 257.81 87.146 257.633 C 86.977 257.459 86.882 257.227 86.856 256.941 L 85.769 256.941 C 85.779 257.213 85.844 257.479 85.96 257.72 C 86.075 257.952 86.223 258.153 86.404 258.319 C 86.583 258.485 86.793 258.614 87.027 258.708 C 87.261 258.802 87.513 258.848 87.779 258.848 C 88.249 258.848 88.644 258.739 88.962 258.518 C 89.279 258.303 89.544 258.011 89.739 257.666 C 89.936 257.317 90.077 256.928 90.162 256.502 C 90.249 256.075 90.291 255.652 90.291 255.232 C 90.291 254.719 90.257 254.242 90.186 253.799 C 90.115 253.357 89.99 252.971 89.809 252.641 C 89.633 252.314 89.377 252.045 89.069 251.863 C 88.754 251.673 88.353 251.577 87.864 251.577 L 87.864 251.577 Z  M 87.904 252.525 C 88.1 252.525 88.273 252.564 88.422 252.645 C 88.568 252.721 88.696 252.832 88.797 252.969 C 88.9 253.106 88.976 253.262 89.027 253.434 C 89.077 253.607 89.103 253.79 89.103 253.982 C 89.103 254.177 89.078 254.358 89.027 254.531 C 88.974 254.706 88.898 254.858 88.797 254.988 C 88.694 255.119 88.566 255.225 88.422 255.297 C 88.272 255.374 88.1 255.411 87.904 255.411 C 87.726 255.416 87.549 255.375 87.388 255.291 C 87.247 255.216 87.122 255.109 87.023 254.976 C 86.924 254.848 86.852 254.697 86.805 254.522 C 86.708 254.169 86.708 253.792 86.805 253.438 C 86.852 253.262 86.924 253.106 87.023 252.975 C 87.122 252.842 87.243 252.735 87.388 252.652 C 87.547 252.564 87.725 252.52 87.904 252.525 Z " fill="rgb(162,86,228)"/><path d=" M 499.411 386.455 C 498.401 386.455 497.579 387.332 497.579 388.409 L 497.579 402.742 C 497.579 403.82 498.401 404.697 499.411 404.697 L 501.243 404.697 L 501.243 406 L 504.906 406 L 504.906 404.697 L 519.56 404.697 L 519.56 406 L 523.224 406 L 523.224 404.697 L 525.056 404.697 C 526.066 404.697 526.888 403.82 526.888 402.742 L 526.888 388.409 C 526.888 387.332 526.066 386.455 525.056 386.455 L 499.411 386.455 Z  M 502.464 390.364 L 503.685 390.364 L 503.685 400.788 L 502.464 400.788 L 502.464 390.364 Z  M 507.959 390.364 L 508.57 390.364 C 509.58 390.364 510.402 391.241 510.402 392.318 L 510.402 398.833 C 510.402 399.911 509.58 400.788 508.57 400.788 L 507.959 400.788 C 506.949 400.788 506.127 399.911 506.127 398.833 L 506.127 392.318 C 506.127 391.241 506.949 390.364 507.959 390.364 Z  M 515.897 390.364 L 516.507 390.364 C 517.517 390.364 518.339 391.241 518.339 392.318 L 518.339 398.833 C 518.339 399.911 517.517 400.788 516.507 400.788 L 515.897 400.788 C 514.887 400.788 514.065 399.911 514.065 398.833 L 514.065 392.318 C 514.065 391.241 514.887 390.364 515.897 390.364 Z  M 521.392 390.364 L 522.003 390.364 C 523.013 390.364 523.835 391.241 523.835 392.318 L 523.835 398.833 C 523.835 399.911 523.013 400.788 522.003 400.788 L 521.392 400.788 C 520.382 400.788 519.56 399.911 519.56 398.833 L 519.56 392.318 C 519.56 391.241 520.382 390.364 521.392 390.364 Z  M 507.959 391.667 C 507.622 391.667 507.349 391.959 507.349 392.318 L 507.349 398.833 C 507.349 399.192 507.622 399.485 507.959 399.485 L 508.57 399.485 C 508.907 399.485 509.18 399.192 509.18 398.833 L 509.18 392.318 C 509.18 391.959 508.907 391.667 508.57 391.667 L 507.959 391.667 Z  M 515.897 391.667 C 515.56 391.667 515.286 391.959 515.286 392.318 L 515.286 398.833 C 515.286 399.192 515.56 399.485 515.897 399.485 L 516.507 399.485 C 516.845 399.485 517.118 399.192 517.118 398.833 L 517.118 392.318 C 517.118 391.959 516.845 391.667 516.507 391.667 L 515.897 391.667 Z  M 521.392 391.667 C 521.055 391.667 520.782 391.959 520.782 392.318 L 520.782 398.833 C 520.782 399.192 521.055 399.485 521.392 399.485 L 522.003 399.485 C 522.34 399.485 522.613 399.192 522.613 398.833 L 522.613 392.318 C 522.613 391.959 522.34 391.667 522.003 391.667 L 521.392 391.667 Z  M 511.623 392.318 L 512.844 392.318 L 512.844 393.621 L 511.623 393.621 L 511.623 392.318 Z  M 511.623 397.53 L 512.844 397.53 L 512.844 398.833 L 511.623 398.833 L 511.623 397.53 Z " fill="rgb(165,87,241)"/><path d=" M 56.5 219.275 C 50.155 219.275 45 226.019 45 234.322 C 45 242.624 50.155 249.369 56.5 249.369 C 62.845 249.369 68 242.624 68 234.322 C 68 226.019 62.845 219.275 56.5 219.275 Z  M 56.5 220.779 C 62.223 220.779 66.85 226.834 66.85 234.322 C 66.85 241.81 62.223 247.864 56.5 247.864 C 50.777 247.864 46.15 241.81 46.15 234.322 C 46.15 226.834 50.777 220.779 56.5 220.779 Z  M 56.5 227.316 C 56.213 229.422 55.056 229.872 53.445 229.949 L 53.445 231.312 L 56.213 231.312 L 56.213 241.164 L 57.471 241.164 L 57.471 227.315 L 56.5 227.316 Z " fill="rgb(0,153,255)"/><g opacity="0.38"><path d=" M 86 208.556 C 81.034 208.556 77 213.237 77 219 C 77 224.763 81.034 229.444 86 229.444 C 90.966 229.444 95 224.763 95 219 C 95 213.237 90.966 208.556 86 208.556 Z  M 86 209.6 C 90.479 209.6 94.1 213.802 94.1 219 C 94.1 224.198 90.479 228.4 86 228.4 C 81.521 228.4 77.9 224.198 77.9 219 C 77.9 213.802 81.521 209.6 86 209.6 Z  M 86 214.137 C 85.775 215.599 84.87 215.912 83.609 215.965 L 83.609 216.911 L 85.775 216.911 L 85.775 223.749 L 86.76 223.749 L 86.76 214.137 L 86 214.137 Z " fill="rgb(255,0,0)"/></g><path d=" M 518.233 418 L 506.233 418 C 504.033 418 502.233 419.8 502.233 422 L 502.233 434 C 502.233 436.2 504.033 438 506.233 438 L 518.233 438 C 520.433 438 522.233 436.2 522.233 434 L 522.233 422 C 522.233 419.8 520.433 418 518.233 418 Z  M 511.933 432.602 C 511.033 432.602 510.335 432.5 509.835 432.199 L 509.835 430.602 C 510.432 431 511.034 431.199 511.835 431.199 C 512.233 431.102 513.233 431 513.233 430 C 513.233 429 511.933 428.8 511.433 428.8 L 510.631 428.8 L 510.631 427.398 L 511.335 427.398 C 512.432 427.398 512.932 427 512.932 426.301 C 512.932 425.601 512.534 425.301 511.632 425.301 C 511.034 425.301 510.534 425.5 510.034 425.801 L 510.034 424.3 C 510.631 423.999 511.334 423.897 512.131 423.897 C 513.034 423.897 514.835 424.198 514.835 425.999 C 514.835 427.101 514.233 427.799 513.131 428.101 C 513.733 428.198 515.034 428.601 515.034 430.101 C 515.131 432.198 512.932 432.601 511.932 432.601 L 511.933 432.602 Z " fill="rgb(0,0,0)"/><g><path d=" M 505.233 320.447 C 505.233 319.647 505.976 319 506.892 319 L 518.503 319 C 519.42 319 520.162 319.647 520.162 320.447 L 520.162 330.575 C 520.162 331.374 519.42 332.021 518.503 332.021 L 506.892 332.021 C 505.976 332.021 505.233 331.374 505.233 330.575 L 505.233 320.447 Z " fill="rgb(33,150,243)"/><path d=" M 515.057 324.202 C 515.057 324.475 514.977 324.717 514.82 324.926 C 514.657 325.139 514.434 325.312 514.172 325.428 C 514.483 325.56 514.729 325.74 514.912 325.967 C 515.095 326.196 515.186 326.466 515.186 326.777 C 515.186 327.279 514.985 327.677 514.583 327.968 C 514.178 328.259 513.624 328.404 512.918 328.404 C 512.208 328.404 511.649 328.259 511.239 327.965 C 510.828 327.674 510.624 327.277 510.624 326.777 C 510.624 326.476 510.713 326.209 510.893 325.977 C 511.073 325.744 511.327 325.561 511.656 325.428 C 511.379 325.302 511.161 325.133 511.002 324.924 C 510.843 324.717 510.764 324.475 510.764 324.202 C 510.764 323.712 510.956 323.326 511.342 323.042 C 511.729 322.758 512.249 322.617 512.905 322.617 C 513.568 322.617 514.091 322.758 514.477 323.042 C 514.864 323.326 515.057 323.712 515.057 324.202 Z  M 513.668 326.674 C 513.668 326.44 513.598 326.262 513.459 326.136 C 513.321 326.012 513.137 325.95 512.91 325.95 C 512.682 325.95 512.499 326.012 512.358 326.136 C 512.217 326.262 512.147 326.44 512.147 326.674 C 512.147 326.897 512.217 327.073 512.359 327.205 C 512.502 327.335 512.688 327.4 512.918 327.4 C 513.143 327.4 513.323 327.335 513.461 327.206 C 513.6 327.076 513.668 326.9 513.668 326.674 Z  M 512.905 323.622 C 512.701 323.622 512.547 323.679 512.44 323.794 C 512.333 323.908 512.281 324.068 512.281 324.272 C 512.281 324.474 512.335 324.635 512.443 324.759 C 512.551 324.884 512.709 324.944 512.918 324.944 C 513.125 324.944 513.281 324.884 513.383 324.759 C 513.486 324.635 513.538 324.473 513.538 324.272 C 513.538 324.071 513.485 323.913 513.38 323.797 C 513.273 323.679 513.114 323.622 512.905 323.622 Z " fill="rgb(243,243,243)"/></g><mask id="_mask_B6KhrqtSoE4rOYcrmbcznJg5cDEyTvqX" x="-200%" y="-200%" width="400%" height="400%"><rect x="-200%" y="-200%" width="400%" height="400%" style="fill:white;"/><path d=" M 563.352 265.811 C 563.352 271.304 559.256 275.757 554.19 275.757 C 549.133 275.757 545.029 271.304 545.029 265.811 C 545.029 260.318 549.133 255.866 554.19 255.866 C 559.238 255.866 563.352 260.318 563.352 265.811 Z " fill="black" stroke="none"/></mask><path d=" M 563.352 265.811 C 563.352 271.304 559.256 275.757 554.19 275.757 C 549.133 275.757 545.029 271.304 545.029 265.811 C 545.029 260.318 549.133 255.866 554.19 255.866 C 559.238 255.866 563.352 260.318 563.352 265.811 Z " fill="none"/><path d=" M 563.352 265.811 C 563.352 271.304 559.256 275.757 554.19 275.757 C 549.133 275.757 545.029 271.304 545.029 265.811 C 545.029 260.318 549.133 255.866 554.19 255.866 C 559.238 255.866 563.352 260.318 563.352 265.811 Z " fill="none" mask="url(#_mask_B6KhrqtSoE4rOYcrmbcznJg5cDEyTvqX)" vector-effect="non-scaling-stroke" stroke-width="3.238" stroke="rgb(4,211,97)" stroke-linejoin="round" stroke-linecap="round" stroke-miterlimit="10"/><mask id="_mask_QcCrmE569MRTPg6TE1ZpIKtGRVi8c1Nu" x="-200%" y="-200%" width="400%" height="400%"><rect x="-200%" y="-200%" width="400%" height="400%" style="fill:white;"/><line x1="560.586" y1="271.348" x2="567.053" y2="278.382" fill="black" stroke="none"/></mask><line x1="560.586" y1="271.348" x2="567.053" y2="278.382" mask="url(#_mask_QcCrmE569MRTPg6TE1ZpIKtGRVi8c1Nu)" vector-effect="non-scaling-stroke" stroke-width="3.238" stroke="rgb(4,211,97)" stroke-linejoin="round" stroke-linecap="round" stroke-miterlimit="10"/><mask id="_mask_NJUxqZwNwRaoDR9HXOLoixlbi71hKhqi" x="-200%" y="-200%" width="400%" height="400%"><rect x="-200%" y="-200%" width="400%" height="400%" style="fill:white;"/><line x1="84.053" y1="191.158" x2="89.617" y2="199.839" fill="black" stroke="none"/></mask><line x1="84.053" y1="191.158" x2="89.617" y2="199.839" mask="url(#_mask_NJUxqZwNwRaoDR9HXOLoixlbi71hKhqi)" vector-effect="non-scaling-stroke" stroke-width="3.238" stroke="rgb(4,211,97)" stroke-linejoin="round" stroke-linecap="round" stroke-miterlimit="10"/><mask id="_mask_5EOjNEsQTKrPOG6aflljp7n0fK0lHi24" x="-200%" y="-200%" width="400%" height="400%"><rect x="-200%" y="-200%" width="400%" height="400%" style="fill:white;"/><line x1="89.617" y1="190.158" x2="84.053" y2="198.839" fill="black" stroke="none"/></mask><line x1="89.617" y1="190.158" x2="84.053" y2="198.839" mask="url(#_mask_5EOjNEsQTKrPOG6aflljp7n0fK0lHi24)" vector-effect="non-scaling-stroke" stroke-width="3.238" stroke="rgb(4,211,97)" stroke-linejoin="round" stroke-linecap="round" stroke-miterlimit="10"/><mask id="_mask_qlAbnxutBsBKY8Ubmz8RObzBho83soel" x="-200%" y="-200%" width="400%" height="400%"><rect x="-200%" y="-200%" width="400%" height="400%" style="fill:white;"/><line x1="469.924" y1="388.864" x2="475.487" y2="397.544" fill="black" stroke="none"/></mask><line x1="469.924" y1="388.864" x2="475.487" y2="397.544" mask="url(#_mask_qlAbnxutBsBKY8Ubmz8RObzBho83soel)" vector-effect="non-scaling-stroke" stroke-width="3.238" stroke="rgb(4,211,97)" stroke-linejoin="round" stroke-linecap="round" stroke-miterlimit="10"/><mask id="_mask_B6B6cidthfg9EKzI02DtbZKqRDmKAEE6" x="-200%" y="-200%" width="400%" height="400%"><rect x="-200%" y="-200%" width="400%" height="400%" style="fill:white;"/><line x1="475.487" y1="388.864" x2="469.924" y2="397.544" fill="black" stroke="none"/></mask><line x1="475.487" y1="388.864" x2="469.924" y2="397.544" mask="url(#_mask_B6B6cidthfg9EKzI02DtbZKqRDmKAEE6)" vector-effect="non-scaling-stroke" stroke-width="3.238" stroke="rgb(4,211,97)" stroke-linejoin="round" stroke-linecap="round" stroke-miterlimit="10"/><mask id="_mask_dnJ5Ay61667EteKPYgDNo3aXdqsLVkIe" x="-200%" y="-200%" width="400%" height="400%"><rect x="-200%" y="-200%" width="400%" height="400%" style="fill:white;"/><line x1="165.984" y1="466.18" x2="165.984" y2="478.455" fill="black" stroke="none"/></mask><line x1="165.984" y1="466.18" x2="165.984" y2="478.455" mask="url(#_mask_dnJ5Ay61667EteKPYgDNo3aXdqsLVkIe)" vector-effect="non-scaling-stroke" stroke-width="3.238" stroke="rgb(4,211,97)" stroke-linejoin="round" stroke-linecap="round" stroke-miterlimit="10"/><mask id="_mask_Di6xA8FTaGxselYlvUnbqYyvw1RQNBsg" x="-200%" y="-200%" width="400%" height="400%"><rect x="-200%" y="-200%" width="400%" height="400%" style="fill:white;"/><line x1="169.927" y1="471.317" x2="162.051" y2="471.317" fill="black" stroke="none"/></mask><line x1="169.927" y1="471.317" x2="162.051" y2="471.317" mask="url(#_mask_Di6xA8FTaGxselYlvUnbqYyvw1RQNBsg)" vector-effect="non-scaling-stroke" stroke-width="3.238" stroke="rgb(4,211,97)" stroke-linejoin="round" stroke-linecap="round" stroke-miterlimit="10"/><mask id="_mask_ome5ms7aRRM6LGs87kf3Kg8OWZDSWXtK" x="-200%" y="-200%" width="400%" height="400%"><rect x="-200%" y="-200%" width="400%" height="400%" style="fill:white;"/><path d=" M 59.768 262.569 C 59.768 266.679 57.631 270.029 54.987 270.029 C 52.353 270.029 50.207 266.694 50.207 262.569 C 50.207 258.457 52.344 255.108 54.987 255.108 C 57.631 255.123 59.768 258.457 59.768 262.569 Z " fill="black" stroke="none"/></mask><path d=" M 59.768 262.569 C 59.768 266.679 57.631 270.029 54.987 270.029 C 52.353 270.029 50.207 266.694 50.207 262.569 C 50.207 258.457 52.344 255.108 54.987 255.108 C 57.631 255.123 59.768 258.457 59.768 262.569 Z " fill="none"/><path d=" M 59.768 262.569 C 59.768 266.679 57.631 270.029 54.987 270.029 C 52.353 270.029 50.207 266.694 50.207 262.569 C 50.207 258.457 52.344 255.108 54.987 255.108 C 57.631 255.123 59.768 258.457 59.768 262.569 Z " fill="none" mask="url(#_mask_ome5ms7aRRM6LGs87kf3Kg8OWZDSWXtK)" vector-effect="non-scaling-stroke" stroke-width="3.238" stroke="rgb(4,211,97)" stroke-linejoin="round" stroke-linecap="round" stroke-miterlimit="10"/><mask id="_mask_AhAw2qG9WfDbbzwf6B7MiNe5j5BfmWaw" x="-200%" y="-200%" width="400%" height="400%"><rect x="-200%" y="-200%" width="400%" height="400%" style="fill:white;"/><path d=" M 502.233 124.143 C 502.233 136.02 494.323 145.696 484.539 145.696 C 474.788 145.696 466.843 136.062 466.843 124.143 C 466.843 112.266 474.754 102.59 484.539 102.59 C 494.323 102.632 502.233 112.266 502.233 124.143 Z " fill="black" stroke="none"/></mask><path d=" M 502.233 124.143 C 502.233 136.02 494.323 145.696 484.539 145.696 C 474.788 145.696 466.843 136.062 466.843 124.143 C 466.843 112.266 474.754 102.59 484.539 102.59 C 494.323 102.632 502.233 112.266 502.233 124.143 Z " fill="none"/><path d=" M 502.233 124.143 C 502.233 136.02 494.323 145.696 484.539 145.696 C 474.788 145.696 466.843 136.062 466.843 124.143 C 466.843 112.266 474.754 102.59 484.539 102.59 C 494.323 102.632 502.233 112.266 502.233 124.143 Z " fill="none" mask="url(#_mask_AhAw2qG9WfDbbzwf6B7MiNe5j5BfmWaw)" vector-effect="non-scaling-stroke" stroke-width="3.238" stroke="rgb(4,211,97)" stroke-linejoin="round" stroke-linecap="round" stroke-miterlimit="10"/><mask id="_mask_xwqnaB3lx7MKwEinMucVSPdSXjG0JUva" x="-200%" y="-200%" width="400%" height="400%"><rect x="-200%" y="-200%" width="400%" height="400%" style="fill:white;"/><path d=" M 405.753 488.263 C 401.69 487.631 398.71 485.004 399.116 482.392 C 399.522 479.789 403.147 478.181 407.223 478.816 C 411.286 479.448 414.266 482.074 413.86 484.687 C 413.439 487.297 409.815 488.896 405.753 488.263 Z " fill="black" stroke="none"/></mask><path d=" M 405.753 488.263 C 401.69 487.631 398.71 485.004 399.116 482.392 C 399.522 479.789 403.147 478.181 407.223 478.816 C 411.286 479.448 414.266 482.074 413.86 484.687 C 413.439 487.297 409.815 488.896 405.753 488.263 Z " fill="none"/><path d=" M 405.753 488.263 C 401.69 487.631 398.71 485.004 399.116 482.392 C 399.522 479.789 403.147 478.181 407.223 478.816 C 411.286 479.448 414.266 482.074 413.86 484.687 C 413.439 487.297 409.815 488.896 405.753 488.263 Z " fill="none" mask="url(#_mask_xwqnaB3lx7MKwEinMucVSPdSXjG0JUva)" vector-effect="non-scaling-stroke" stroke-width="3.238" stroke="rgb(4,211,97)" stroke-linejoin="round" stroke-linecap="round" stroke-miterlimit="10"/><path d=" M 9.732 365.491 C 10.688 365.491 11.463 364.282 11.463 362.789 C 11.463 361.297 10.688 360.087 9.732 360.087 C 8.775 360.087 8 361.297 8 362.789 C 8 364.282 8.775 365.491 9.732 365.491 Z " fill="rgb(152,113,245)"/><path d=" M 21.826 365.491 C 22.782 365.491 23.558 364.282 23.558 362.789 C 23.558 361.297 22.782 360.087 21.826 360.087 C 20.87 360.087 20.095 361.297 20.095 362.789 C 20.095 364.282 20.87 365.491 21.826 365.491 Z " fill="rgb(152,113,245)"/><path d=" M 33.912 365.491 C 34.868 365.491 35.643 364.282 35.643 362.789 C 35.643 361.297 34.868 360.087 33.912 360.087 C 32.956 360.087 32.18 361.297 32.18 362.789 C 32.18 364.282 32.956 365.491 33.912 365.491 Z " fill="rgb(152,113,245)"/><path d=" M 46.007 365.491 C 46.963 365.491 47.738 364.282 47.738 362.789 C 47.738 361.297 46.963 360.087 46.007 360.087 C 45.051 360.087 44.275 361.297 44.275 362.789 C 44.275 364.282 45.051 365.491 46.007 365.491 Z " fill="rgb(152,113,245)"/><path d=" M 58.092 365.491 C 59.049 365.491 59.824 364.282 59.824 362.789 C 59.824 361.297 59.049 360.087 58.092 360.087 C 57.136 360.087 56.361 361.297 56.361 362.789 C 56.361 364.282 57.136 365.491 58.092 365.491 Z " fill="rgb(152,113,245)"/><path d=" M 70.187 365.491 C 71.144 365.491 71.918 364.282 71.918 362.789 C 71.918 361.297 71.144 360.087 70.187 360.087 C 69.231 360.087 68.455 361.297 68.455 362.789 C 68.455 364.282 69.231 365.491 70.187 365.491 Z " fill="rgb(152,113,245)"/><path d=" M 9.731 384.35 C 10.688 384.35 11.463 383.14 11.463 381.649 C 11.463 380.156 10.688 378.946 9.731 378.946 C 8.775 378.946 8 380.156 8 381.649 C 8 383.14 8.775 384.35 9.731 384.35 Z " fill="rgb(152,113,245)"/><path d=" M 21.826 384.35 C 22.782 384.35 23.558 383.14 23.558 381.649 C 23.558 380.156 22.782 378.946 21.826 378.946 C 20.87 378.946 20.095 380.156 20.095 381.649 C 20.095 383.14 20.87 384.35 21.826 384.35 Z " fill="rgb(152,113,245)"/><path d=" M 33.912 384.35 C 34.868 384.35 35.644 383.14 35.644 381.649 C 35.644 380.156 34.868 378.946 33.912 378.946 C 32.956 378.946 32.181 380.156 32.181 381.649 C 32.181 383.14 32.956 384.35 33.912 384.35 Z " fill="rgb(152,113,245)"/><path d=" M 46.007 384.35 C 46.963 384.35 47.738 383.14 47.738 381.649 C 47.738 380.156 46.963 378.946 46.007 378.946 C 45.051 378.946 44.275 380.156 44.275 381.649 C 44.275 383.14 45.051 384.35 46.007 384.35 Z " fill="rgb(152,113,245)"/><path d=" M 58.092 384.35 C 59.049 384.35 59.824 383.14 59.824 381.649 C 59.824 380.156 59.049 378.946 58.092 378.946 C 57.136 378.946 56.361 380.156 56.361 381.649 C 56.361 383.14 57.136 384.35 58.092 384.35 Z " fill="rgb(152,113,245)"/><path d=" M 70.187 384.35 C 71.144 384.35 71.918 383.14 71.918 381.649 C 71.918 380.156 71.144 378.946 70.187 378.946 C 69.231 378.946 68.455 380.156 68.455 381.649 C 68.455 383.14 69.231 384.35 70.187 384.35 Z " fill="rgb(152,113,245)"/><path d=" M 9.731 403.224 C 10.688 403.224 11.463 402.014 11.463 400.522 C 11.463 399.029 10.688 397.82 9.731 397.82 C 8.775 397.82 8 399.029 8 400.522 C 8 402.014 8.775 403.224 9.731 403.224 Z " fill="rgb(152,113,245)"/><path d=" M 21.826 403.224 C 22.782 403.224 23.558 402.014 23.558 400.522 C 23.558 399.029 22.782 397.82 21.826 397.82 C 20.87 397.82 20.095 399.029 20.095 400.522 C 20.095 402.014 20.87 403.224 21.826 403.224 Z " fill="rgb(152,113,245)"/><path d=" M 33.912 403.224 C 34.868 403.224 35.644 402.014 35.644 400.522 C 35.644 399.029 34.868 397.82 33.912 397.82 C 32.956 397.82 32.181 399.029 32.181 400.522 C 32.181 402.014 32.956 403.224 33.912 403.224 Z " fill="rgb(152,113,245)"/><path d=" M 46.007 403.224 C 46.963 403.224 47.738 402.014 47.738 400.522 C 47.738 399.029 46.963 397.82 46.007 397.82 C 45.051 397.82 44.275 399.029 44.275 400.522 C 44.275 402.014 45.051 403.224 46.007 403.224 Z " fill="rgb(152,113,245)"/><path d=" M 58.092 403.224 C 59.049 403.224 59.824 402.014 59.824 400.522 C 59.824 399.029 59.049 397.82 58.092 397.82 C 57.136 397.82 56.361 399.029 56.361 400.522 C 56.361 402.014 57.136 403.224 58.092 403.224 Z " fill="rgb(152,113,245)"/><path d=" M 70.187 403.224 C 71.144 403.224 71.918 402.014 71.918 400.522 C 71.918 399.029 71.144 397.82 70.187 397.82 C 69.231 397.82 68.455 399.029 68.455 400.522 C 68.455 402.014 69.231 403.224 70.187 403.224 Z " fill="rgb(152,113,245)"/><path d=" M 9.731 422.084 C 10.688 422.084 11.463 420.874 11.463 419.381 C 11.463 417.889 10.688 416.679 9.731 416.679 C 8.775 416.679 8 417.889 8 419.381 C 8 420.874 8.775 422.084 9.731 422.084 Z " fill="rgb(152,113,245)"/><path d=" M 21.826 422.084 C 22.782 422.084 23.558 420.874 23.558 419.381 C 23.558 417.889 22.782 416.679 21.826 416.679 C 20.87 416.679 20.095 417.889 20.095 419.381 C 20.095 420.874 20.87 422.084 21.826 422.084 Z " fill="rgb(152,113,245)"/><path d=" M 33.912 422.084 C 34.868 422.084 35.644 420.874 35.644 419.381 C 35.644 417.889 34.868 416.679 33.912 416.679 C 32.956 416.679 32.181 417.889 32.181 419.381 C 32.181 420.874 32.956 422.084 33.912 422.084 Z " fill="rgb(152,113,245)"/><path d=" M 46.007 422.084 C 46.963 422.084 47.738 420.874 47.738 419.381 C 47.738 417.889 46.963 416.679 46.007 416.679 C 45.051 416.679 44.275 417.889 44.275 419.381 C 44.275 420.874 45.051 422.084 46.007 422.084 Z " fill="rgb(152,113,245)"/><path d=" M 58.092 422.084 C 59.049 422.084 59.824 420.874 59.824 419.381 C 59.824 417.889 59.049 416.679 58.092 416.679 C 57.136 416.679 56.361 417.889 56.361 419.381 C 56.361 420.874 57.136 422.084 58.092 422.084 Z " fill="rgb(152,113,245)"/><path d=" M 70.187 422.084 C 71.144 422.084 71.918 420.874 71.918 419.381 C 71.918 417.889 71.144 416.679 70.187 416.679 C 69.231 416.679 68.455 417.889 68.455 419.381 C 68.455 420.874 69.231 422.084 70.187 422.084 Z " fill="rgb(152,113,245)"/><path d=" M 521.894 187.721 C 522.85 187.721 523.625 186.511 523.625 185.019 C 523.625 183.527 522.85 182.317 521.894 182.317 C 520.937 182.317 520.162 183.527 520.162 185.019 C 520.162 186.511 520.937 187.721 521.894 187.721 Z " fill="rgb(152,113,245)"/><path d=" M 521.894 200.455 C 522.85 200.455 523.625 199.245 523.625 197.753 C 523.625 196.26 522.85 195.05 521.894 195.05 C 520.937 195.05 520.162 196.26 520.162 197.753 C 520.162 199.245 520.937 200.455 521.894 200.455 Z " fill="rgb(152,113,245)"/><path d=" M 530.936 189.372 C 531.893 189.372 532.668 188.162 532.668 186.67 C 532.668 185.178 531.893 183.968 530.936 183.968 C 529.98 183.968 529.205 185.178 529.205 186.67 C 529.205 188.162 529.98 189.372 530.936 189.372 Z " fill="rgb(152,113,245)"/><path d=" M 541.297 191.158 C 542.253 191.158 543.029 189.948 543.029 188.456 C 543.029 186.964 542.253 185.755 541.297 185.755 C 540.341 185.755 539.566 186.964 539.566 188.456 C 539.566 189.948 540.341 191.158 541.297 191.158 Z " fill="rgb(152,113,245)"/><path d=" M 530.936 202.245 C 531.893 202.245 532.668 201.035 532.668 199.544 C 532.668 198.051 531.893 196.842 530.936 196.842 C 529.98 196.842 529.205 198.051 529.205 199.544 C 529.205 201.035 529.98 202.245 530.936 202.245 Z " fill="rgb(152,113,245)"/><path d=" M 540.834 204.245 C 541.791 204.245 542.566 203.035 542.566 201.544 C 542.566 200.051 541.791 198.842 540.834 198.842 C 539.878 198.842 539.102 200.051 539.102 201.544 C 539.102 203.035 539.878 204.245 540.834 204.245 Z " fill="rgb(152,113,245)"/><path d=" M 143.206 78.59 C 144.163 78.59 144.938 77.381 144.938 75.888 C 144.938 74.396 144.163 73.186 143.206 73.186 C 142.25 73.186 141.475 74.396 141.475 75.888 C 141.475 77.381 142.25 78.59 143.206 78.59 Z " fill="rgb(152,113,245)"/><path d=" M 155.292 78.59 C 156.248 78.59 157.023 77.381 157.023 75.888 C 157.023 74.396 156.248 73.186 155.292 73.186 C 154.335 73.186 153.56 74.396 153.56 75.888 C 153.56 77.381 154.335 78.59 155.292 78.59 Z " fill="rgb(152,113,245)"/><path d=" M 167.386 78.59 C 168.343 78.59 169.117 77.381 169.117 75.888 C 169.117 74.396 168.343 73.186 167.386 73.186 C 166.43 73.186 165.655 74.396 165.655 75.888 C 165.655 77.381 166.43 78.59 167.386 78.59 Z " fill="rgb(152,113,245)"/><path d=" M 143.206 97.464 C 144.163 97.464 144.937 96.254 144.937 94.762 C 144.937 93.27 144.163 92.06 143.206 92.06 C 142.25 92.06 141.475 93.27 141.475 94.762 C 141.475 96.254 142.25 97.464 143.206 97.464 Z " fill="rgb(152,113,245)"/><path d=" M 155.292 97.464 C 156.248 97.464 157.023 96.254 157.023 94.762 C 157.023 93.27 156.248 92.06 155.292 92.06 C 154.335 92.06 153.56 93.27 153.56 94.762 C 153.56 96.254 154.335 97.464 155.292 97.464 Z " fill="rgb(152,113,245)"/><g><path d=" M 167.387 97.464 C 168.343 97.464 169.118 96.254 169.118 94.762 C 169.118 93.27 168.343 92.06 167.387 92.06 C 166.43 92.06 165.655 93.27 165.655 94.762 C 165.655 96.254 166.43 97.464 167.387 97.464 Z " fill="rgb(152,113,245)"/></g><path d=" M 586.269 365.491 C 587.223 365.491 588 364.282 588 362.789 C 588 361.297 587.223 360.087 586.269 360.087 C 585.31 360.087 584.538 361.297 584.538 362.789 C 584.538 364.282 585.31 365.491 586.269 365.491 Z " fill="rgb(152,113,245)"/><path d=" M 586.269 384.365 C 587.223 384.365 588 383.155 588 381.662 C 588 380.171 587.223 378.961 586.269 378.961 C 585.31 378.961 584.538 380.171 584.538 381.662 C 584.538 383.155 585.31 384.365 586.269 384.365 Z " fill="rgb(152,113,245)"/><path d=" M 586.269 403.224 C 587.223 403.224 588 402.014 588 400.522 C 588 399.029 587.223 397.82 586.269 397.82 C 585.31 397.82 584.538 399.029 584.538 400.522 C 584.538 402.014 585.31 403.224 586.269 403.224 Z " fill="rgb(152,113,245)"/><path d=" M 586.269 422.098 C 587.223 422.098 588 420.888 588 419.396 C 588 417.903 587.223 416.694 586.269 416.694 C 585.31 416.694 584.538 417.903 584.538 419.396 C 584.538 420.888 585.31 422.098 586.269 422.098 Z " fill="rgb(152,113,245)"/><path d=" M 586.269 440.957 C 587.223 440.957 588 439.747 588 438.255 C 588 436.763 587.223 435.553 586.269 435.553 C 585.31 435.553 584.538 436.763 584.538 438.255 C 584.538 439.747 585.31 440.957 586.269 440.957 Z " fill="rgb(152,113,245)"/><path d=" M 586.269 459.831 C 587.223 459.831 588 458.621 588 457.129 C 588 455.636 587.223 454.426 586.269 454.426 C 585.31 454.426 584.538 455.636 584.538 457.129 C 584.538 458.621 585.31 459.831 586.269 459.831 Z " fill="rgb(152,113,245)"/><path d=" M 586.269 478.69 C 587.223 478.69 588 477.48 588 475.988 C 588 474.496 587.223 473.286 586.269 473.286 C 585.31 473.286 584.538 474.496 584.538 475.988 C 584.538 477.48 585.31 478.69 586.269 478.69 Z " fill="rgb(152,113,245)"/><path d=" M 574.174 365.491 C 575.132 365.491 575.905 364.282 575.905 362.789 C 575.905 361.297 575.132 360.087 574.174 360.087 C 573.22 360.087 572.443 361.297 572.443 362.789 C 572.443 364.282 573.22 365.491 574.174 365.491 Z " fill="rgb(152,113,245)"/><path d=" M 574.174 384.365 C 575.132 384.365 575.905 383.155 575.905 381.662 C 575.905 380.171 575.132 378.961 574.174 378.961 C 573.22 378.961 572.443 380.171 572.443 381.662 C 572.443 383.155 573.22 384.365 574.174 384.365 Z " fill="rgb(152,113,245)"/><path d=" M 574.174 403.224 C 575.132 403.224 575.905 402.014 575.905 400.522 C 575.905 399.029 575.132 397.82 574.174 397.82 C 573.22 397.82 572.443 399.029 572.443 400.522 C 572.443 402.014 573.22 403.224 574.174 403.224 Z " fill="rgb(152,113,245)"/><path d=" M 574.174 422.098 C 575.132 422.098 575.905 420.888 575.905 419.396 C 575.905 417.903 575.132 416.694 574.174 416.694 C 573.22 416.694 572.443 417.903 572.443 419.396 C 572.443 420.888 573.22 422.098 574.174 422.098 Z " fill="rgb(152,113,245)"/><path d=" M 574.174 440.957 C 575.132 440.957 575.905 439.747 575.905 438.255 C 575.905 436.763 575.132 435.553 574.174 435.553 C 573.22 435.553 572.443 436.763 572.443 438.255 C 572.443 439.747 573.22 440.957 574.174 440.957 Z " fill="rgb(152,113,245)"/><path d=" M 574.174 459.831 C 575.132 459.831 575.905 458.621 575.905 457.129 C 575.905 455.636 575.132 454.426 574.174 454.426 C 573.22 454.426 572.443 455.636 572.443 457.129 C 572.443 458.621 573.22 459.831 574.174 459.831 Z " fill="rgb(152,113,245)"/><path d=" M 574.174 478.69 C 575.132 478.69 575.905 477.48 575.905 475.988 C 575.905 474.496 575.132 473.286 574.174 473.286 C 573.22 473.286 572.443 474.496 572.443 475.988 C 572.443 477.48 573.22 478.69 574.174 478.69 Z " fill="rgb(152,113,245)"/><path d=" M 562.089 365.491 C 563.042 365.491 563.819 364.282 563.819 362.789 C 563.819 361.297 563.042 360.087 562.089 360.087 C 561.13 360.087 560.358 361.297 560.358 362.789 C 560.358 364.282 561.13 365.491 562.089 365.491 Z " fill="rgb(152,113,245)"/><path d=" M 562.089 384.365 C 563.042 384.365 563.819 383.155 563.819 381.662 C 563.819 380.171 563.042 378.961 562.089 378.961 C 561.13 378.961 560.358 380.171 560.358 381.662 C 560.358 383.155 561.13 384.365 562.089 384.365 Z " fill="rgb(152,113,245)"/><path d=" M 562.089 403.224 C 563.042 403.224 563.819 402.014 563.819 400.522 C 563.819 399.029 563.042 397.82 562.089 397.82 C 561.13 397.82 560.358 399.029 560.358 400.522 C 560.358 402.014 561.13 403.224 562.089 403.224 Z " fill="rgb(152,113,245)"/><path d=" M 562.089 422.098 C 563.042 422.098 563.819 420.888 563.819 419.396 C 563.819 417.903 563.042 416.694 562.089 416.694 C 561.13 416.694 560.358 417.903 560.358 419.396 C 560.358 420.888 561.13 422.098 562.089 422.098 Z " fill="rgb(152,113,245)"/><path d=" M 562.089 440.957 C 563.042 440.957 563.819 439.747 563.819 438.255 C 563.819 436.763 563.042 435.553 562.089 435.553 C 561.13 435.553 560.358 436.763 560.358 438.255 C 560.358 439.747 561.13 440.957 562.089 440.957 Z " fill="rgb(152,113,245)"/><path d=" M 562.089 459.831 C 563.042 459.831 563.819 458.621 563.819 457.129 C 563.819 455.636 563.042 454.426 562.089 454.426 C 561.13 454.426 560.358 455.636 560.358 457.129 C 560.358 458.621 561.13 459.831 562.089 459.831 Z " fill="rgb(152,113,245)"/><path d=" M 562.089 478.69 C 563.042 478.69 563.819 477.48 563.819 475.988 C 563.819 474.496 563.042 473.286 562.089 473.286 C 561.13 473.286 560.358 474.496 560.358 475.988 C 560.358 477.48 561.13 478.69 562.089 478.69 Z " fill="rgb(152,113,245)"/><path d=" M 549.993 365.491 C 550.952 365.491 551.724 364.282 551.724 362.789 C 551.724 361.297 550.952 360.087 549.993 360.087 C 549.039 360.087 548.262 361.297 548.262 362.789 C 548.262 364.282 549.039 365.491 549.993 365.491 Z " fill="rgb(152,113,245)"/><path d=" M 549.993 384.365 C 550.952 384.365 551.724 383.155 551.724 381.662 C 551.724 380.171 550.952 378.961 549.993 378.961 C 549.034 378.961 548.262 380.171 548.262 381.662 C 548.262 383.155 549.034 384.365 549.993 384.365 Z " fill="rgb(152,113,245)"/><path d=" M 549.993 403.224 C 550.952 403.224 551.724 402.014 551.724 400.522 C 551.724 399.029 550.952 397.82 549.993 397.82 C 549.034 397.82 548.262 399.029 548.262 400.522 C 548.262 402.014 549.034 403.224 549.993 403.224 Z " fill="rgb(152,113,245)"/><path d=" M 549.993 422.098 C 550.952 422.098 551.724 420.888 551.724 419.396 C 551.724 417.903 550.952 416.694 549.993 416.694 C 549.034 416.694 548.262 417.903 548.262 419.396 C 548.262 420.888 549.034 422.098 549.993 422.098 Z " fill="rgb(152,113,245)"/><path d=" M 549.993 440.957 C 550.952 440.957 551.724 439.747 551.724 438.255 C 551.724 436.763 550.952 435.553 549.993 435.553 C 549.034 435.553 548.262 436.763 548.262 438.255 C 548.262 439.747 549.034 440.957 549.993 440.957 Z " fill="rgb(152,113,245)"/><path d=" M 549.993 459.831 C 550.952 459.831 551.724 458.621 551.724 457.129 C 551.724 455.636 550.952 454.426 549.993 454.426 C 549.034 454.426 548.262 455.636 548.262 457.129 C 548.262 458.621 549.034 459.831 549.993 459.831 Z " fill="rgb(152,113,245)"/><path d=" M 549.993 478.69 C 550.952 478.69 551.724 477.48 551.724 475.988 C 551.724 474.496 550.952 473.286 549.993 473.286 C 549.034 473.286 548.262 474.496 548.262 475.988 C 548.262 477.48 549.034 478.69 549.993 478.69 Z " fill="rgb(152,113,245)"/></svg>