<?xml version="1.0" encoding="UTF-8" standalone="no"?>
<!-- Generator: Gravit.io -->
<svg xmlns="http://www.w3.org/2000/svg" xmlns:xlink="http://www.w3.org/1999/xlink" style="isolation:isolate" viewBox="0 0 467 107" width="467pt" height="107pt"><path d=" M 39.664 64.31 L 39.664 64.31 L 39.664 64.31 Q 38.368 74.138 38.368 79.538 L 38.368 79.538 L 38.368 79.538 Q 38.368 84.938 41.716 84.938 L 41.716 84.938 L 41.716 84.938 Q 45.064 84.938 49.654 79.97 L 49.654 79.97 L 49.654 79.97 Q 54.244 75.002 58.24 66.362 L 58.24 66.362 L 58.24 66.362 Q 62.236 57.722 63.1 48.866 L 63.1 48.866 L 63.1 48.866 Q 63.1 39.902 53.92 28.454 L 53.92 28.454 L 53.92 28.454 Q 56.08 23.81 59.536 20.084 L 59.536 20.084 L 59.536 20.084 Q 62.992 16.358 65.368 14.954 L 65.368 14.954 L 67.744 13.442 L 67.744 13.442 Q 71.74 13.442 74.602 19.22 L 74.602 19.22 L 74.602 19.22 Q 77.464 24.998 77.464 32.018 L 77.464 32.018 L 77.464 32.018 Q 77.464 44.114 70.444 59.882 L 70.444 59.882 L 70.444 59.882 Q 63.424 75.65 52.948 87.098 L 52.948 87.098 L 52.948 87.098 Q 42.472 98.546 33.616 98.546 L 33.616 98.546 L 33.616 98.546 Q 27.892 98.546 24.706 94.388 L 24.706 94.388 L 24.706 94.388 Q 21.52 90.23 21.52 84.398 L 21.52 84.398 L 21.52 84.398 Q 21.52 78.566 22.924 65.282 L 22.924 65.282 L 22.924 65.282 Q 12.88 64.31 6.346 58.424 L 6.346 58.424 L 6.346 58.424 Q -0.188 52.538 -0.188 43.952 L -0.188 43.952 L -0.188 43.952 Q -0.188 35.366 7.858 27.968 L 7.858 27.968 L 7.858 27.968 Q 15.904 20.57 26.272 20.57 L 26.272 20.57 L 26.272 20.57 Q 42.148 20.57 42.148 40.334 L 42.148 40.334 L 42.148 40.334 Q 42.148 45.302 41.392 50.486 L 41.392 50.486 L 40.636 56.858 L 40.636 56.858 Q 46.036 55.562 49.276 53.726 L 49.276 53.726 L 50.464 53.078 L 50.464 53.078 Q 52.732 55.346 52.84 59.99 L 52.84 59.99 L 52.84 59.99 Q 46.144 63.122 39.664 64.31 Z  M 25.3 40.442 L 25.3 40.442 L 25.3 40.442 Q 25.3 34.826 24.112 32.396 L 24.112 32.396 L 24.112 32.396 Q 22.924 29.966 19.414 29.966 L 19.414 29.966 L 19.414 29.966 Q 15.904 29.966 11.206 34.016 L 11.206 34.016 L 11.206 34.016 Q 6.508 38.066 6.508 44.06 L 6.508 44.06 L 6.508 44.06 Q 6.508 50.054 11.53 54.104 L 11.53 54.104 L 11.53 54.104 Q 16.552 58.154 23.68 58.154 L 23.68 58.154 L 23.68 58.154 Q 25.3 46.058 25.3 40.442 Z  M 98.2 56.102 L 98.2 56.102 L 98.2 56.102 Q 98.2 60.638 95.284 71.708 L 95.284 71.708 L 95.284 71.708 Q 92.368 82.778 92.368 86.18 L 92.368 86.18 L 92.368 86.18 Q 92.368 89.582 93.34 89.582 L 93.34 89.582 L 93.34 89.582 Q 93.988 89.582 98.308 87.53 L 98.308 87.53 L 99.604 86.882 L 101.44 90.662 L 101.44 90.662 Q 100.468 91.526 98.848 92.822 L 98.848 92.822 L 98.848 92.822 Q 97.228 94.118 92.8 96.332 L 92.8 96.332 L 92.8 96.332 Q 88.372 98.546 84.592 98.546 L 84.592 98.546 L 84.592 98.546 Q 80.812 98.546 78.652 96.224 L 78.652 96.224 L 78.652 96.224 Q 76.492 93.902 76.492 89.96 L 76.492 89.96 L 76.492 89.96 Q 76.492 86.018 79.192 75.92 L 79.192 75.92 L 79.192 75.92 Q 81.892 65.822 81.892 62.798 L 81.892 62.798 L 81.892 62.798 Q 81.892 58.262 79.084 54.266 L 79.084 54.266 L 78.112 52.97 L 78.22 51.566 L 78.22 51.566 Q 83.944 49.946 96.796 49.946 L 96.796 49.946 L 96.796 49.946 Q 98.2 51.566 98.2 56.102 Z  M 85.888 38.12 L 85.888 38.12 L 85.888 38.12 Q 83.728 36.014 83.728 32.45 L 83.728 32.45 L 83.728 32.45 Q 83.728 28.886 86.698 26.186 L 86.698 26.186 L 86.698 26.186 Q 89.668 23.486 93.556 23.486 L 93.556 23.486 L 93.556 23.486 Q 97.444 23.486 99.604 25.646 L 99.604 25.646 L 99.604 25.646 Q 101.764 27.806 101.764 31.316 L 101.764 31.316 L 101.764 31.316 Q 101.764 34.826 98.686 37.526 L 98.686 37.526 L 98.686 37.526 Q 95.608 40.226 91.828 40.226 L 91.828 40.226 L 91.828 40.226 Q 88.048 40.226 85.888 38.12 Z  M 102.088 121.442 L 102.088 121.442 L 102.088 121.442 Q 101.548 120.146 101.548 115.718 L 101.548 115.718 L 101.548 115.718 Q 101.548 111.29 105.76 91.904 L 105.76 91.904 L 105.76 91.904 Q 109.972 72.518 109.972 62.042 L 109.972 62.042 L 109.972 62.042 Q 109.972 59.99 109 57.668 L 109 57.668 L 109 57.668 Q 108.028 55.346 106.948 54.05 L 106.948 54.05 L 105.976 52.862 L 106.084 51.458 L 106.084 51.458 Q 111.16 49.838 124.012 49.838 L 124.012 49.838 L 124.012 49.838 Q 125.2 52.106 125.524 56.21 L 125.524 56.21 L 125.524 56.21 Q 133.84 49.406 139.402 49.406 L 139.402 49.406 L 139.402 49.406 Q 144.964 49.406 148.366 54.05 L 148.366 54.05 L 148.366 54.05 Q 151.768 58.694 151.768 67.658 L 151.768 67.658 L 151.768 67.658 Q 151.768 83.318 146.044 90.932 L 146.044 90.932 L 146.044 90.932 Q 140.32 98.546 131.572 98.546 L 131.572 98.546 L 131.572 98.546 Q 127.036 98.546 124.012 97.25 L 124.012 97.25 L 122.932 96.818 L 123.688 92.606 L 123.688 92.606 Q 124.66 92.822 125.956 92.822 L 125.956 92.822 L 125.956 92.822 Q 128.764 92.822 130.87 90.23 L 130.87 90.23 L 130.87 90.23 Q 132.976 87.638 134.056 83.642 L 134.056 83.642 L 134.056 83.642 Q 136.216 75.65 136.216 68.846 L 136.216 68.846 L 136.216 68.846 Q 136.216 59.126 132.22 59.126 L 132.22 59.126 L 132.22 59.126 Q 129.088 59.126 125.524 61.61 L 125.524 61.61 L 125.524 61.61 Q 125.092 69.17 121.096 88.07 L 121.096 88.07 L 121.096 88.07 Q 117.1 106.97 117.1 118.526 L 117.1 118.526 L 117.1 118.526 Q 111.268 120.902 102.088 121.442 Z  M 196.048 53.078 L 196.048 53.078 Q 199.396 52.322 202.528 48.11 L 202.528 48.11 L 202.528 48.11 Q 205.66 43.898 205.66 37.58 L 205.66 37.58 L 205.66 37.58 Q 205.66 31.262 201.178 28.346 L 201.178 28.346 L 201.178 28.346 Q 196.696 25.43 187.408 25.43 L 187.408 25.43 L 187.408 25.43 Q 173.584 25.43 164.782 30.722 L 164.782 30.722 L 164.782 30.722 Q 155.98 36.014 155.98 42.062 L 155.98 42.062 L 155.98 42.062 Q 155.98 45.194 158.356 47.084 L 158.356 47.084 L 158.356 47.084 Q 160.732 48.974 163.108 49.622 L 163.108 49.622 L 163.108 49.622 Q 162.784 53.834 160.192 57.614 L 160.192 57.614 L 160.192 57.614 Q 155.98 56.858 152.416 53.132 L 152.416 53.132 L 152.416 53.132 Q 148.852 49.406 148.852 43.466 L 148.852 43.466 L 148.852 43.466 Q 148.852 32.882 160.624 25.916 L 160.624 25.916 L 160.624 25.916 Q 172.396 18.95 191.08 18.95 L 191.08 18.95 L 191.08 18.95 Q 205.444 18.95 213.868 23.486 L 213.868 23.486 L 213.868 23.486 Q 222.292 28.022 222.292 37.418 L 222.292 37.418 L 222.292 37.418 Q 222.292 44.762 217.216 49.622 L 217.216 49.622 L 217.216 49.622 Q 212.14 54.482 204.256 56.966 L 204.256 56.966 L 204.256 56.966 Q 212.14 58.154 216.784 62.906 L 216.784 62.906 L 216.784 62.906 Q 225.424 60.638 232.768 60.638 L 232.768 60.638 L 238.06 60.962 L 238.06 60.962 Q 238.276 61.718 238.276 62.474 L 238.276 62.474 L 238.276 62.474 Q 238.276 66.254 237.196 68.414 L 237.196 68.414 L 237.196 68.414 Q 234.28 67.766 229.366 67.766 L 229.366 67.766 L 229.366 67.766 Q 224.452 67.766 220.564 68.954 L 220.564 68.954 L 220.564 68.954 Q 221.968 72.95 221.968 77.486 L 221.968 77.486 L 221.968 77.486 Q 221.968 88.502 215.38 95.63 L 215.38 95.63 L 215.38 95.63 Q 208.792 102.758 200.26 102.758 L 200.26 102.758 L 200.26 102.758 Q 194.428 102.758 190.54 99.248 L 190.54 99.248 L 190.54 99.248 Q 186.652 95.738 186.652 89.096 L 186.652 89.096 L 186.652 89.096 Q 186.652 82.454 191.566 76.46 L 191.566 76.46 L 191.566 76.46 Q 196.48 70.466 203.608 67.01 L 203.608 67.01 L 203.608 67.01 Q 200.8 59.774 193.564 59.774 L 193.564 59.774 L 192.808 59.774 L 192.808 59.774 Q 192.16 56.966 193.132 53.402 L 193.132 53.402 L 193.132 53.402 Q 194.752 53.402 196.048 53.078 L 196.048 53.078 L 196.048 53.078 Z  M 175.096 41.306 L 175.096 41.306 L 175.096 41.306 Q 175.096 39.254 174.61 38.282 L 174.61 38.282 L 174.61 38.282 Q 174.124 37.31 172.504 35.474 L 172.504 35.474 L 172.612 34.718 L 172.612 34.718 Q 178.336 31.37 186.868 31.37 L 186.868 31.37 L 186.868 31.37 Q 190.216 31.37 191.836 31.91 L 191.836 31.91 L 191.836 31.91 Q 192.376 32.99 192.376 36.5 L 192.376 36.5 L 192.376 36.5 Q 192.376 40.01 186.814 62.528 L 186.814 62.528 L 186.814 62.528 Q 181.252 85.046 180.28 96.062 L 180.28 96.062 L 180.28 96.062 Q 173.908 97.898 166.132 97.898 L 166.132 97.898 L 166.132 97.898 Q 164.296 97.898 163.432 97.574 L 163.432 97.574 L 163.432 97.574 Q 163.972 90.77 169.534 69.278 L 169.534 69.278 L 169.534 69.278 Q 175.096 47.786 175.096 41.306 Z  M 197.668 93.578 L 197.668 93.578 L 197.668 93.578 Q 200.584 93.578 202.852 88.232 L 202.852 88.232 L 202.852 88.232 Q 205.12 82.886 205.12 76.19 L 205.12 76.19 L 205.012 74.354 L 205.012 74.354 Q 201.016 75.866 197.398 79.862 L 197.398 79.862 L 197.398 79.862 Q 193.78 83.858 193.78 88.394 L 193.78 88.394 L 193.78 88.394 Q 193.78 91.094 195.022 92.336 L 195.022 92.336 L 195.022 92.336 Q 196.264 93.578 197.668 93.578 Z  M 263.224 52.538 L 263.224 52.538 L 263.224 52.538 Q 263.44 52.322 264.412 49.73 L 264.412 49.73 L 264.412 49.73 Q 269.488 49.73 278.02 52.754 L 278.02 52.754 L 278.02 52.754 Q 275.32 61.718 273.7 71.492 L 273.7 71.492 L 273.7 71.492 Q 272.08 81.266 272.08 85.424 L 272.08 85.424 L 272.08 85.424 Q 272.08 89.582 272.944 89.582 L 272.944 89.582 L 272.944 89.582 Q 273.592 89.582 277.696 87.53 L 277.696 87.53 L 278.992 86.882 L 280.936 90.662 L 280.936 90.662 Q 279.964 91.526 278.398 92.822 L 278.398 92.822 L 278.398 92.822 Q 276.832 94.118 272.512 96.332 L 272.512 96.332 L 272.512 96.332 Q 268.192 98.546 264.736 98.546 L 264.736 98.546 L 264.736 98.546 Q 258.04 98.546 256.96 92.498 L 256.96 92.498 L 256.96 92.498 Q 250.048 98.546 244.486 98.546 L 244.486 98.546 L 244.486 98.546 Q 238.924 98.546 235.09 94.226 L 235.09 94.226 L 235.09 94.226 Q 231.256 89.906 231.256 80.618 L 231.256 80.618 L 231.256 80.618 Q 231.256 66.146 237.196 57.776 L 237.196 57.776 L 237.196 57.776 Q 243.136 49.406 251.56 49.406 L 251.56 49.406 L 251.56 49.406 Q 257.608 49.406 263.224 52.538 Z  M 250.912 89.366 L 250.912 89.366 L 250.912 89.366 Q 253.504 89.366 256.744 87.314 L 256.744 87.314 L 256.744 87.314 Q 257.5 72.086 261.82 57.182 L 261.82 57.182 L 261.82 57.182 Q 258.58 55.778 256.312 55.778 L 256.312 55.778 L 256.312 55.778 Q 252.424 55.778 249.67 63.392 L 249.67 63.392 L 249.67 63.392 Q 246.916 71.006 246.916 80.186 L 246.916 80.186 L 246.916 80.186 Q 246.916 89.366 250.912 89.366 Z  M 285.04 97.574 L 285.04 97.574 L 284.284 97.574 L 284.284 97.574 Q 284.068 96.71 284.068 93.632 L 284.068 93.632 L 284.068 93.632 Q 284.068 90.554 286.984 77.054 L 286.984 77.054 L 286.984 77.054 Q 289.9 63.554 289.9 61.61 L 289.9 61.61 L 289.9 61.61 Q 289.9 58.262 286.876 54.266 L 286.876 54.266 L 285.904 52.97 L 286.012 51.566 L 286.012 51.566 Q 291.844 49.946 304.696 49.946 L 304.696 49.946 L 304.696 49.946 Q 305.992 52.754 305.992 57.83 L 305.992 57.83 L 305.992 57.83 Q 307.18 55.886 310.96 52.646 L 310.96 52.646 L 310.96 52.646 Q 314.74 49.406 318.736 49.406 L 318.736 49.406 L 318.736 49.406 Q 324.568 49.406 324.568 59.558 L 324.568 59.558 L 324.568 59.558 Q 324.028 60.206 323.11 61.232 L 323.11 61.232 L 323.11 61.232 Q 322.192 62.258 319.438 64.094 L 319.438 64.094 L 319.438 64.094 Q 316.684 65.93 314.092 66.362 L 314.092 66.362 L 314.092 66.362 Q 313.984 66.362 312.256 63.446 L 312.256 63.446 L 312.256 63.446 Q 310.528 60.53 309.664 60.53 L 309.664 60.53 L 309.664 60.53 Q 306.964 61.502 304.912 63.77 L 304.912 63.77 L 304.912 63.77 Q 299.944 86.126 299.944 92.714 L 299.944 92.714 L 299.944 92.714 Q 299.944 95.09 300.052 96.062 L 300.052 96.062 L 300.052 96.062 Q 296.272 97.574 285.04 97.574 Z  M 350.164 21.866 L 350.164 21.866 L 350.164 21.866 Q 350.164 30.074 344.656 54.05 L 344.656 54.05 L 344.656 54.05 Q 351.136 49.406 356.374 49.406 L 356.374 49.406 L 356.374 49.406 Q 361.612 49.406 365.338 53.78 L 365.338 53.78 L 365.338 53.78 Q 369.064 58.154 369.064 67.118 L 369.064 67.118 L 369.064 67.118 Q 369.064 82.13 363.178 90.338 L 363.178 90.338 L 363.178 90.338 Q 357.292 98.546 348.868 98.546 L 348.868 98.546 L 348.868 98.546 Q 345.736 98.546 342.55 97.79 L 342.55 97.79 L 342.55 97.79 Q 339.364 97.034 337.744 96.17 L 337.744 96.17 L 336.124 95.414 L 336.124 95.414 Q 329.212 97.79 322.624 97.79 L 322.624 97.79 L 322.624 97.79 Q 321.976 97.25 321.976 92.552 L 321.976 92.552 L 321.976 92.552 Q 321.976 87.854 328.024 61.448 L 328.024 61.448 L 328.024 61.448 Q 334.072 35.042 334.072 25.322 L 334.072 25.322 L 334.072 25.322 Q 334.072 23.594 333.532 20.894 L 333.532 20.894 L 333.532 20.894 Q 341.956 17.978 349.624 17.978 L 349.624 17.978 L 349.624 17.978 Q 350.164 19.49 350.164 21.866 Z  M 349.192 58.586 L 349.192 58.586 L 349.192 58.586 Q 347.14 58.586 343.036 60.53 L 343.036 60.53 L 343.036 60.53 Q 338.068 81.482 337.636 90.554 L 337.636 90.554 L 337.636 90.554 Q 340.876 91.958 343.792 91.958 L 343.792 91.958 L 343.792 91.958 Q 347.896 91.958 350.65 84.398 L 350.65 84.398 L 350.65 84.398 Q 353.404 76.838 353.404 67.712 L 353.404 67.712 L 353.404 67.712 Q 353.404 58.586 349.192 58.586 Z  M 373.6 78.566 L 373.6 78.566 L 373.6 78.566 Q 373.6 65.066 381.754 57.236 L 381.754 57.236 L 381.754 57.236 Q 389.908 49.406 400.276 49.406 L 400.276 49.406 L 400.276 49.406 Q 406.648 49.406 410.752 52.538 L 410.752 52.538 L 410.752 52.538 Q 414.856 55.67 414.856 60.908 L 414.856 60.908 L 414.856 60.908 Q 414.856 66.146 412.21 69.71 L 412.21 69.71 L 412.21 69.71 Q 409.564 73.274 405.784 75.218 L 405.784 75.218 L 405.784 75.218 Q 398.116 78.998 391.744 79.97 L 391.744 79.97 L 389.152 80.294 L 389.152 80.294 Q 389.908 90.446 397.468 90.446 L 397.468 90.446 L 397.468 90.446 Q 400.06 90.446 402.976 89.15 L 402.976 89.15 L 402.976 89.15 Q 405.892 87.854 407.512 86.558 L 407.512 86.558 L 409.132 85.262 L 411.724 88.718 L 411.724 88.718 Q 410.86 89.906 408.268 91.85 L 408.268 91.85 L 408.268 91.85 Q 405.676 93.794 403.408 95.09 L 403.408 95.09 L 403.408 95.09 Q 397.144 98.546 389.692 98.546 L 389.692 98.546 L 389.692 98.546 Q 382.24 98.546 377.92 93.254 L 377.92 93.254 L 377.92 93.254 Q 373.6 87.962 373.6 78.566 Z  M 389.044 75.002 L 389.044 75.002 Q 394.552 74.03 397.792 70.358 L 397.792 70.358 L 397.792 70.358 Q 401.032 66.686 401.032 60.854 L 401.032 60.854 L 401.032 60.854 Q 401.032 55.022 397.576 55.022 L 397.576 55.022 L 397.576 55.022 Q 393.472 55.022 391.258 61.988 L 391.258 61.988 L 391.258 61.988 Q 389.044 68.954 389.044 75.002 L 389.044 75.002 L 389.044 75.002 Z  M 419.284 97.574 L 419.284 97.574 L 418.528 97.574 L 418.528 97.574 Q 418.312 96.71 418.312 93.632 L 418.312 93.632 L 418.312 93.632 Q 418.312 90.554 421.228 77.054 L 421.228 77.054 L 421.228 77.054 Q 424.144 63.554 424.144 61.61 L 424.144 61.61 L 424.144 61.61 Q 424.144 58.262 421.12 54.266 L 421.12 54.266 L 420.148 52.97 L 420.256 51.566 L 420.256 51.566 Q 426.088 49.946 438.94 49.946 L 438.94 49.946 L 438.94 49.946 Q 440.236 52.754 440.236 57.83 L 440.236 57.83 L 440.236 57.83 Q 441.424 55.886 445.204 52.646 L 445.204 52.646 L 445.204 52.646 Q 448.984 49.406 452.98 49.406 L 452.98 49.406 L 452.98 49.406 Q 458.812 49.406 458.812 59.558 L 458.812 59.558 L 458.812 59.558 Q 458.272 60.206 457.354 61.232 L 457.354 61.232 L 457.354 61.232 Q 456.436 62.258 453.682 64.094 L 453.682 64.094 L 453.682 64.094 Q 450.928 65.93 448.336 66.362 L 448.336 66.362 L 448.336 66.362 Q 448.228 66.362 446.5 63.446 L 446.5 63.446 L 446.5 63.446 Q 444.772 60.53 443.908 60.53 L 443.908 60.53 L 443.908 60.53 Q 441.208 61.502 439.156 63.77 L 439.156 63.77 L 439.156 63.77 Q 434.188 86.126 434.188 92.714 L 434.188 92.714 L 434.188 92.714 Q 434.188 95.09 434.296 96.062 L 434.296 96.062 L 434.296 96.062 Q 430.516 97.574 419.284 97.574 Z " fill="rgb(255,255,255)"/></svg>